<svg width="519" height="430" viewBox="0 0 519 430" fill="none" xmlns="http://www.w3.org/2000/svg">
    <g opacity="0.86">
        <path fill-rule="evenodd" clip-rule="evenodd"
            d="M479.637 317.229L475.682 305.043C475.682 305.043 409.856 320.054 390.606 346.599C369.909 375.14 376.195 408.323 404.635 420.655C433.09 432.993 472.954 419.845 493.665 391.285L489.687 379.089L472.837 382.255C460.497 399.271 436.746 407.105 419.791 399.754C402.845 392.406 399.102 372.635 411.434 355.63C415.195 350.444 420.017 346.11 425.381 342.8C437.618 335.248 452.693 333.019 464.48 338.13L479.637 317.229Z"
            fill="#0073E6" />
        <mask id="mask0_633_2893" style="mask-type:luminance" maskUnits="userSpaceOnUse" x="378" y="305" width="116"
            height="121">
            <path
                d="M479.637 317.229L475.682 305.043C475.682 305.043 409.856 320.054 390.606 346.599C369.909 375.14 376.195 408.323 404.635 420.655C433.09 432.993 472.954 419.845 493.665 391.285L489.687 379.089L472.837 382.255C460.497 399.271 436.746 407.105 419.791 399.754C402.845 392.406 399.102 372.635 411.434 355.63C415.195 350.444 420.017 346.11 425.381 342.8C437.618 335.248 452.693 333.019 464.48 338.13L479.637 317.229Z"
                fill="white" />
        </mask>
        <g mask="url(#mask0_633_2893)">
            <path fill-rule="evenodd" clip-rule="evenodd"
                d="M399.512 311.921L399.968 362.53L407.168 375.899L471.681 339.911L484.531 306.487L459.666 285.032L399.512 311.921Z"
                fill="#85B1C2" />
        </g>
        <path fill-rule="evenodd" clip-rule="evenodd"
            d="M475.655 305.031C447.199 292.693 407.336 305.841 386.624 334.402C365.927 362.942 372.213 396.126 400.653 408.457C429.108 420.795 468.972 407.647 489.683 379.088L468.855 370.057C456.515 387.074 432.764 394.907 415.81 387.556C398.863 380.208 395.12 360.437 407.452 343.432C419.792 326.416 443.544 318.581 460.498 325.932L475.655 305.031Z"
            fill="#0073E6" />
        <mask id="mask1_633_2893" style="mask-type:luminance" maskUnits="userSpaceOnUse" x="374" y="300" width="116"
            height="114">
            <path
                d="M475.655 305.03C447.199 292.692 407.336 305.84 386.624 334.401C365.927 362.941 372.213 396.125 400.653 408.456C429.108 420.794 468.972 407.646 489.683 379.087L468.855 370.056C456.515 387.073 432.764 394.906 415.81 387.555C398.863 380.207 395.12 360.436 407.452 343.431C419.792 326.415 443.544 318.58 460.498 325.931L475.655 305.03Z"
                fill="white" />
        </mask>
        <g mask="url(#mask1_633_2893)">
            <path fill-rule="evenodd" clip-rule="evenodd"
                d="M359.334 364.001L403.16 362.836L467.535 334.048L484.531 306.483L437.722 258.111L359.334 364.001Z"
                fill="#A6D2E4" />
        </g>
        <path fill-rule="evenodd" clip-rule="evenodd"
            d="M512.913 374.192C521.617 352.751 516.416 331.452 499.537 319.407L456.834 346.47L459.244 355.418C461.98 357.372 464.415 364.041 463 367.518L512.913 374.192Z"
            fill="#001320" />
        <path fill-rule="evenodd" clip-rule="evenodd"
            d="M508.932 361.996C517.636 340.555 512.434 319.256 495.556 307.21L456.855 346.436C459.591 348.389 460.434 351.845 459.019 355.322L508.932 361.996Z"
            fill="#023341" />
        <path fill-rule="evenodd" clip-rule="evenodd"
            d="M112.297 322.542C113.201 328.57 64.0614 353.353 74.3536 397.402C82.2453 431.177 145.355 457.879 183.569 411.696C204.677 386.198 179.041 343.743 180.719 329.71C181.24 325.365 190.031 330.901 193.662 327.501C198.236 323.218 193.47 315.55 190.251 313.487C183.038 308.858 174.259 306.105 166.071 303.82C152.077 299.914 137.405 296.786 122.874 299.452C117.17 300.497 107.106 303.451 103.391 308.322C99.2412 313.761 111.459 316.966 112.297 322.542Z"
            fill="#0073E6" />
        <mask id="mask2_633_2893" style="mask-type:luminance" maskUnits="userSpaceOnUse" x="72" y="298" width="124"
            height="139">
            <path
                d="M112.297 322.542C113.201 328.57 64.0617 353.353 74.3538 397.402C82.2456 431.177 145.355 457.879 183.569 411.696C204.677 386.198 179.042 343.743 180.719 329.71C181.24 325.365 190.032 330.901 193.662 327.501C198.236 323.218 193.471 315.55 190.251 313.487C183.038 308.858 174.259 306.105 166.071 303.82C152.077 299.914 137.406 296.786 122.874 299.452C117.17 300.497 107.106 303.451 103.392 308.322C99.2415 313.761 111.459 316.966 112.297 322.542Z"
                fill="white" />
        </mask>
        <g mask="url(#mask2_633_2893)">
            <path fill-rule="evenodd" clip-rule="evenodd"
                d="M115.36 298.463C111.565 298.961 108.892 303.398 110.64 306.08C112.318 308.644 116.106 310.271 119.24 311.551C135.401 318.138 155.885 320.578 173.52 320.004C179.216 319.819 189.934 319.443 191.888 314.253C193.818 309.133 185.45 304.091 180.588 301.762C179.273 301.13 177.91 300.553 176.527 300.028C158.131 293.058 134.291 293.324 115.36 298.463Z"
                fill="#023341" />
            <path fill-rule="evenodd" clip-rule="evenodd"
                d="M191.95 330.364C183.742 330.354 172.913 332.829 164.695 332.911C159.275 332.965 153.018 334.723 147.65 333.981C144.462 333.541 141.513 333.855 138.37 333.163C135.567 332.545 132.887 331.598 130.218 330.543C129.346 330.197 127.571 329.245 126.579 329.651C125.726 330.003 127.918 332.408 128.154 332.649C130.608 335.216 134.002 336.723 137.372 337.712C142.424 339.193 147.92 339.125 153.137 339.008C160.445 338.843 170.567 333.847 175.148 340.352C175.814 341.292 175.637 343.065 175.811 344.188C176.355 347.665 187.015 392.749 147.748 415.043C141.635 418.509 134.773 421.264 127.682 421.535C122.182 421.742 116.723 420.431 111.298 419.531C84.7503 415.108 73.6905 386.679 73.8183 381.979C74.8643 343.243 66.3234 377.558 65.8989 379.194C64.072 386.289 70.8802 399.47 71.8316 406.685C72.7132 413.389 74.7728 419.814 78.3015 425.595C91.6534 447.436 124.901 451.98 147.309 443.743C153.865 441.33 187.081 435.302 191.998 430.299C207.865 414.14 198.039 350.977 191.95 330.364Z"
                fill="#0073E6" />
        </g>
        <path
            d="M137.981 381.726C137.264 380.447 136.34 379.628 135.205 379.27C134.073 378.91 132.477 378.888 130.416 379.202C128.359 379.515 126.536 379.702 124.951 379.76C123.362 379.821 121.899 379.688 120.558 379.363C119.227 379.041 117.976 378.45 116.882 377.626C115.768 376.796 114.785 375.615 113.928 374.086C112.45 371.45 112.082 368.818 112.822 366.189C113.563 363.559 115.248 361.324 117.884 359.477L115.077 354.47L118.819 352.373L121.665 357.45C124.646 356.291 127.452 356.229 130.082 357.267C132.712 358.304 134.881 360.342 136.586 363.383L129.824 367.174C128.774 365.302 127.601 364.12 126.313 363.623C125.02 363.128 123.725 363.244 122.433 363.968C121.154 364.685 120.366 365.604 120.07 366.723C119.774 367.842 119.986 369.04 120.703 370.319C121.367 371.504 122.241 372.265 123.333 372.596C124.421 372.929 126.107 372.947 128.39 372.651C130.674 372.355 132.602 372.202 134.174 372.192C135.746 372.181 137.179 372.362 138.476 372.732C139.748 373.092 140.936 373.701 141.971 374.524C143.006 375.348 143.922 376.469 144.717 377.889C146.204 380.54 146.581 383.158 145.858 385.736C145.13 388.317 143.397 390.569 140.665 392.49L143.275 397.146L139.555 399.231L136.958 394.599C133.566 396.049 130.455 396.302 127.62 395.36C124.785 394.417 122.472 392.347 120.68 389.15L127.442 385.359C128.482 387.215 129.721 388.391 131.158 388.887C132.595 389.383 134.138 389.169 135.793 388.241C137.164 387.473 138.043 386.504 138.435 385.33C138.823 384.16 138.672 382.958 137.981 381.726Z"
            fill="white" />
        <path fill-rule="evenodd" clip-rule="evenodd"
            d="M176.657 332.476C175.686 334.653 175.047 336.978 175.154 339.381C175.452 346.278 181.458 351.012 187.212 353.476C191.584 355.351 196.913 356.676 201.837 358.636C200.639 362.023 198.705 365.251 196.778 368.803C195.432 371.283 193.64 374.561 192.969 377.801C192.453 380.287 192.572 382.756 193.776 384.932C195.136 387.408 197.446 388.748 200.078 389.23C203.647 389.874 207.822 388.856 210.534 387.212C217.501 383.001 220.863 373.659 216.973 366.144C214.638 361.625 210.742 358.687 206.243 356.518C206.894 353.466 206.937 350.234 206.028 346.579C205.778 345.587 204.771 344.983 203.778 345.231C202.785 345.479 202.182 346.487 202.432 347.478C203.119 350.225 203.164 352.696 202.779 355.025C198.01 353.172 192.889 351.878 188.664 350.07C184.129 348.126 179.09 344.659 178.849 339.219C178.729 336.489 179.935 333.921 181.268 331.608C181.48 331.226 181.903 330.793 182.236 330.353C182.647 329.825 182.961 329.28 183.116 328.788C183.378 327.949 183.078 327.434 182.906 327.164C182.54 326.601 181.983 326.219 181.113 326.322C180.933 326.342 180.7 326.395 180.435 326.529C180.238 326.63 179.756 327.053 179.535 327.213C179.131 327.499 178.699 327.72 178.252 327.926C176.694 328.643 175.029 329.139 173.367 329.508C168.03 330.689 162.554 331.19 157.105 331.244C148.39 331.328 125.042 328.196 114.931 324.95C113.953 324.636 112.949 324.183 112.234 323.83C112.652 323.309 112.776 322.576 112.488 321.921C112.08 320.984 110.985 320.556 110.048 320.966C108.044 321.845 107.582 323.137 107.668 324.105C107.75 324.942 108.393 326.043 109.968 326.923C116.784 330.725 146.832 335.049 157.139 334.95C162.849 334.894 168.58 334.363 174.166 333.126C175 332.941 175.835 332.727 176.657 332.476ZM205.189 360.124C203.914 363.586 202.007 366.936 200.032 370.571C199.025 372.433 197.706 374.781 196.953 377.203C196.314 379.245 196.033 381.347 197.023 383.143C198.041 384.995 200.018 385.649 202.071 385.712C204.415 385.791 206.901 385.076 208.618 384.044C213.981 380.8 216.679 373.634 213.684 367.847C211.824 364.246 208.734 361.901 205.189 360.124Z"
            fill="#023341" />
        <path fill-rule="evenodd" clip-rule="evenodd"
            d="M131.011 345.154C113.772 344.686 99.3869 358.303 98.9179 375.544C98.4489 392.788 112.072 407.165 129.311 407.634C146.55 408.103 160.928 394.487 161.397 377.243C161.866 360.002 148.25 345.623 131.011 345.154ZM130.96 347.007C147.182 347.448 159.985 360.974 159.543 377.193C159.102 393.411 145.583 406.222 129.362 405.781C113.14 405.34 100.33 391.813 100.771 375.594C101.212 359.375 114.739 346.565 130.96 347.007Z"
            fill="white" />
        <path fill-rule="evenodd" clip-rule="evenodd"
            d="M147.91 312.757C148.052 308.454 147.098 304.049 146.194 299.87C143.779 288.745 139.657 278.538 131.23 270.604C127.137 266.751 121.427 262.935 115.55 263.089C112.766 263.161 109.531 264.406 109.317 267.591C108.927 273.284 115.235 278.463 119.085 281.678C128.489 289.535 146.526 298.912 147.91 312.757Z"
            fill="#0073E6" />
        <mask id="mask3_633_2893" style="mask-type:luminance" maskUnits="userSpaceOnUse" x="109" y="263" width="39"
            height="50">
            <path
                d="M147.91 312.756C148.052 308.453 147.098 304.048 146.194 299.869C143.779 288.744 139.657 278.537 131.23 270.603C127.137 266.75 121.427 262.934 115.55 263.088C112.766 263.16 109.531 264.405 109.317 267.59C108.927 273.283 115.235 278.462 119.085 281.677C128.489 289.534 146.526 298.911 147.91 312.756Z"
                fill="white" />
        </mask>
        <g mask="url(#mask3_633_2893)">
            <path fill-rule="evenodd" clip-rule="evenodd"
                d="M112.698 259.823C111.706 261.674 111.782 264.004 111.966 266.028C112.127 267.854 112.427 269.725 113.171 271.41C115.871 277.502 122.614 280.683 128.711 282.31C131.466 283.045 135.925 283.826 138.376 281.767C140.061 280.35 139.138 278.705 139.245 276.917C139.275 276.444 139.661 276.373 140.043 276.536C142.118 277.401 143.619 280.66 144.582 282.483C147.468 287.983 148.988 294.421 149.226 300.611C149.31 302.791 149.457 305.84 147.865 307.585C145.868 309.777 142.125 307.518 140.219 306.354C139.666 306.013 139.116 305.657 138.574 305.295C137.947 304.878 137.321 304.445 136.711 304.015C135.749 303.341 134.814 302.633 133.886 301.925C128.213 297.623 100.853 279.328 97.8163 271.77C94.6499 263.88 105.522 261.587 112.698 259.823Z"
                fill="#477282" />
        </g>
        <path fill-rule="evenodd" clip-rule="evenodd"
            d="M151.183 313.105C151.984 308.876 153.878 304.786 155.673 300.905C160.459 290.575 166.711 281.516 176.667 275.614C181.503 272.748 187.908 270.271 193.61 271.705C196.312 272.383 199.196 274.305 198.709 277.459C197.846 283.1 190.56 286.777 186.101 289.073C175.207 294.686 155.557 299.898 151.183 313.105Z"
            fill="#0073E6" />
        <mask id="mask4_633_2893" style="mask-type:luminance" maskUnits="userSpaceOnUse" x="151" y="271" width="48"
            height="43">
            <path
                d="M151.183 313.104C151.985 308.875 153.878 304.785 155.673 300.904C160.46 290.574 166.711 281.515 176.667 275.613C181.504 272.747 187.909 270.27 193.611 271.704C196.312 272.382 199.197 274.304 198.71 277.458C197.847 283.099 190.56 286.776 186.101 289.072C175.207 294.685 155.558 299.897 151.183 313.104Z"
                fill="white" />
        </mask>
        <g mask="url(#mask4_633_2893)">
            <path fill-rule="evenodd" clip-rule="evenodd"
                d="M197.107 269.14C197.67 271.163 197.088 273.42 196.466 275.356C195.91 277.102 195.208 278.862 194.114 280.344C190.149 285.699 182.875 287.331 176.569 287.587C173.72 287.703 169.198 287.49 167.256 284.946C165.922 283.195 167.181 281.792 167.467 280.023C167.542 279.555 167.18 279.402 166.771 279.477C164.557 279.868 162.382 282.721 161.043 284.29C157.026 289.026 154.137 294.977 152.552 300.965C151.994 303.074 151.184 306.018 152.357 308.068C153.827 310.643 157.974 309.256 160.087 308.537C160.701 308.325 161.316 308.098 161.924 307.863C162.627 307.593 163.332 307.307 164.022 307.021C165.107 306.573 166.174 306.086 167.234 305.598C173.71 302.639 204.406 290.762 209.02 284.049C213.833 277.041 203.724 272.429 197.107 269.14Z"
                fill="#477282" />
        </g>
        <path fill-rule="evenodd" clip-rule="evenodd"
            d="M146.876 310.484C147.979 302.473 149.438 293.884 149.43 285.491C149.415 277.543 148.087 269.767 143.607 262.935C138.756 255.526 131.241 250.385 124.635 244.642C117.284 238.245 111.011 231.16 109.481 220.452C109.011 217.224 109.066 213.927 109.737 210.735C110.455 207.332 111.96 204.141 113.829 201.208C114.729 199.795 116.612 199.381 118.023 200.283C119.435 201.185 119.854 203.065 118.946 204.477C117.471 206.795 116.25 209.304 115.677 211.993C115.15 214.488 115.124 217.066 115.488 219.59C116.801 228.713 122.354 234.61 128.624 240.06C135.64 246.164 143.534 251.733 148.693 259.606C158.716 274.915 155.234 294.33 152.898 311.312C152.663 312.976 151.132 314.139 149.471 313.907C147.809 313.682 146.651 312.149 146.876 310.484Z"
            fill="#0073E6" />
        <mask id="mask5_633_2893" style="mask-type:luminance" maskUnits="userSpaceOnUse" x="109" y="199" width="47"
            height="115">
            <path
                d="M146.877 310.483C147.98 302.472 149.438 293.883 149.431 285.49C149.416 277.542 148.088 269.766 143.607 262.934C138.756 255.525 131.241 250.384 124.636 244.641C117.285 238.244 111.012 231.159 109.481 220.451C109.011 217.223 109.067 213.926 109.737 210.734C110.456 207.331 111.961 204.14 113.83 201.207C114.729 199.794 116.612 199.38 118.024 200.282C119.436 201.184 119.854 203.064 118.946 204.476C117.471 206.794 116.25 209.303 115.677 211.992C115.151 214.487 115.125 217.065 115.489 219.589C116.802 228.712 122.354 234.609 128.625 240.059C135.641 246.163 143.534 251.732 148.693 259.605C158.717 274.914 155.235 294.329 152.898 311.311C152.664 312.975 151.132 314.138 149.471 313.906C147.809 313.681 146.651 312.148 146.877 310.483Z"
                fill="white" />
        </mask>
        <g mask="url(#mask5_633_2893)">
            <path fill-rule="evenodd" clip-rule="evenodd"
                d="M127.767 197.037C122.771 200.282 118.464 223.154 114.622 227.61C113.71 228.678 112.003 233.062 110.396 233.146C109.153 233.208 108.304 231.32 107.878 230.439C106.354 227.324 105.728 223.677 105.21 220.285C103.853 211.534 103.719 201.159 107.247 192.883C107.838 191.484 108.583 190.092 109.537 188.905C113.718 183.729 119.91 187.251 123.433 191.172C125.06 192.987 126.457 194.98 127.767 197.037Z"
                fill="#477282" />
        </g>
        <path
            d="M120.289 219.659C104.642 217.929 93.3601 203.843 95.0898 188.196C96.8194 172.549 110.906 161.266 126.553 162.996C142.2 164.726 153.482 178.812 151.752 194.459C150.023 210.106 135.936 221.389 120.289 219.659Z"
            fill="#F29F05" />
        <mask id="mask6_633_2893" style="mask-type:luminance" maskUnits="userSpaceOnUse" x="94" y="162" width="58"
            height="58">
            <path
                d="M120.289 219.659C104.642 217.929 93.3601 203.843 95.0898 188.196C96.8194 172.549 110.906 161.266 126.553 162.996C142.2 164.726 153.482 178.812 151.752 194.459C150.023 210.106 135.936 221.389 120.289 219.659Z"
                fill="white" />
        </mask>
        <g mask="url(#mask6_633_2893)">
            <path fill-rule="evenodd" clip-rule="evenodd"
                d="M102.779 166.576C98.4134 180.206 97.455 197.155 109.205 207.446C111.451 209.402 113.959 211.036 116.655 212.301C123.427 215.485 131.875 216.381 138.991 213.855C141.084 213.118 143.109 212.109 144.883 210.77C145.997 209.933 147.173 208.459 148.497 207.978C149.813 207.496 149.982 209.118 149.808 210.006C149.166 213.354 146.509 216.448 144.174 218.762C135.187 227.668 121.817 229.095 110.448 223.981C90.843 215.166 83.6019 183.243 102.779 166.576Z"
                fill="#D98A00" />
        </g>
        <path fill-rule="evenodd" clip-rule="evenodd"
            d="M153.325 282.315C148.898 286.341 147.453 281.403 152.275 276.588C156.844 272.036 155.017 269.942 156.384 263.453C157.87 256.42 156.527 249.153 156.051 242.064C155.524 234.172 156.01 226.507 161.296 219.497C162.885 217.378 164.814 215.523 167.034 214.082C169.403 212.547 172.102 211.586 174.859 210.983C176.187 210.692 177.503 211.539 177.792 212.867C178.081 214.196 177.239 215.513 175.907 215.799C173.729 216.277 171.586 217.01 169.711 218.22C167.973 219.345 166.475 220.806 165.231 222.46C160.733 228.438 160.518 235.009 160.971 241.737C161.475 249.268 162.788 256.999 161.211 264.474C159.404 273.019 159.641 276.568 153.325 282.315Z"
            fill="#0073E6" />
        <mask id="mask7_633_2893" style="mask-type:luminance" maskUnits="userSpaceOnUse" x="149" y="210" width="29"
            height="74">
            <path
                d="M153.325 282.315C148.898 286.341 147.453 281.403 152.275 276.588C156.844 272.036 155.017 269.942 156.384 263.453C157.87 256.42 156.527 249.153 156.051 242.064C155.524 234.172 156.01 226.507 161.296 219.497C162.885 217.378 164.814 215.523 167.034 214.082C169.403 212.547 172.102 211.586 174.859 210.983C176.187 210.692 177.503 211.539 177.792 212.867C178.081 214.196 177.239 215.513 175.907 215.799C173.729 216.277 171.586 217.01 169.711 218.22C167.973 219.345 166.475 220.806 165.231 222.46C160.733 228.438 160.518 235.009 160.971 241.737C161.475 249.268 162.788 256.999 161.211 264.474C159.404 273.019 159.641 276.568 153.325 282.315Z"
                fill="white" />
        </mask>
        <g mask="url(#mask7_633_2893)">
            <path fill-rule="evenodd" clip-rule="evenodd"
                d="M185.237 216.615C180.51 215.597 164.883 226.211 160.119 226.551C158.983 226.638 155.483 228.164 154.515 227.288C153.767 226.609 154.368 225.039 154.631 224.29C155.551 221.63 157.291 219.182 158.947 216.942C163.206 211.152 169.1 205.136 175.882 202.429C177.025 201.968 178.253 201.6 179.482 201.469C184.853 200.912 186.372 206.492 186.132 210.763C186.018 212.738 185.671 214.684 185.237 216.615Z"
                fill="#477282" />
        </g>
        <path
            d="M168.022 225.312C160.06 215.318 161.708 200.762 171.702 192.8C181.697 184.839 196.253 186.487 204.214 196.481C212.175 206.475 210.527 221.031 200.533 228.993C190.539 236.954 175.983 235.306 168.022 225.312Z"
            fill="#F29F05" />
        <mask id="mask8_633_2893" style="mask-type:luminance" maskUnits="userSpaceOnUse" x="162" y="187" width="48"
            height="48">
            <path
                d="M168.022 225.312C160.061 215.318 161.709 200.762 171.703 192.8C181.697 184.839 196.253 186.487 204.214 196.481C212.176 206.475 210.528 221.031 200.534 228.993C190.539 236.954 175.984 235.306 168.022 225.312Z"
                fill="white" />
        </mask>
        <g mask="url(#mask8_633_2893)">
            <path fill-rule="evenodd" clip-rule="evenodd"
                d="M188.545 184.85C178.203 190.141 167.901 199.291 168.705 211.944C168.865 214.356 169.36 216.734 170.176 219.01C172.22 224.73 176.54 230.104 182.067 232.753C183.689 233.536 185.429 234.123 187.215 234.378C188.335 234.539 189.856 234.373 190.891 234.859C191.922 235.34 191.085 236.366 190.474 236.774C188.18 238.321 184.879 238.564 182.211 238.544C171.941 238.471 163.467 231.594 159.902 222.124C153.752 205.796 167.977 183.356 188.545 184.85Z"
                fill="#D98A00" />
        </g>
        <path
            d="M188.179 237.542C192.504 231.624 201.792 231.051 208.924 236.263C216.056 241.476 218.331 250.499 214.006 256.417C209.681 262.336 200.393 262.908 193.261 257.696C186.128 252.484 183.853 243.461 188.179 237.542Z"
            fill="#FAD8BA" />
        <mask id="mask9_633_2893" style="mask-type:luminance" maskUnits="userSpaceOnUse" x="185" y="232" width="32"
            height="30">
            <path
                d="M188.179 237.541C192.504 231.623 201.792 231.05 208.924 236.262C216.056 241.475 218.331 250.498 214.006 256.416C209.681 262.335 200.393 262.907 193.261 257.695C186.128 252.483 183.853 243.46 188.179 237.541Z"
                fill="white" />
        </mask>
        <g mask="url(#mask9_633_2893)">
            <path fill-rule="evenodd" clip-rule="evenodd"
                d="M183.954 240.522C184.543 243.094 185.548 245.432 186.939 247.678C187.57 248.706 188.211 249.837 189.163 250.596C191.623 252.541 195.484 252.702 198.404 252.02C199.762 251.704 201.003 251.12 202.158 250.339C204.554 248.707 207.228 244.993 210.458 247.239C210.95 247.58 211.378 248.023 211.731 248.5C212.222 249.162 212.598 249.903 212.843 250.69C213.102 251.48 213.236 252.307 213.239 253.139C213.292 260.04 205.196 263.248 199.42 263.306C193.356 263.367 183.056 258.389 180.393 251.387C179.195 248.232 184.971 242.973 183.954 240.522Z"
                fill="#D7B699" />
        </g>
        <path
            d="M447.434 196.537C441.741 191.919 432.615 193.738 427.05 200.598C421.485 207.459 421.59 216.764 427.283 221.382C432.976 226 442.102 224.182 447.667 217.321C453.232 210.46 453.128 201.155 447.434 196.537Z"
            fill="#FAD8BA" />
        <mask id="mask10_633_2893" style="mask-type:luminance" maskUnits="userSpaceOnUse" x="422" y="193" width="30"
            height="31">
            <path
                d="M447.434 196.537C441.741 191.919 432.615 193.738 427.05 200.598C421.485 207.459 421.59 216.764 427.283 221.382C432.976 226 442.102 224.182 447.667 217.321C453.232 210.46 453.128 201.155 447.434 196.537Z"
                fill="white" />
        </mask>
        <g mask="url(#mask10_633_2893)">
            <path fill-rule="evenodd" clip-rule="evenodd"
                d="M452.279 198.34C452.367 200.976 451.992 203.493 451.221 206.02C450.873 207.175 450.542 208.433 449.815 209.41C447.933 211.918 444.242 213.06 441.244 213.146C439.85 213.187 438.501 212.939 437.185 212.479C434.452 211.513 430.919 208.605 428.369 211.601C427.981 212.057 427.68 212.594 427.461 213.146C427.155 213.911 426.981 214.723 426.944 215.546C426.895 216.377 426.977 217.21 427.187 218.016C428.897 224.701 437.545 225.736 443.144 224.317C449.022 222.828 457.71 215.385 458.497 207.935C458.849 204.578 451.922 200.968 452.279 198.34Z"
                fill="#D7B699" />
        </g>
        <path fill-rule="evenodd" clip-rule="evenodd"
            d="M208.888 236.601C208.888 236.601 199.275 227.655 192.402 223.913C185.529 220.172 178.68 219.466 177.115 222.341C175.551 225.212 183.556 234.433 190.429 238.175C197.301 241.917 208.888 236.601 208.888 236.601Z"
            fill="#FAD8BA" />
        <path fill-rule="evenodd" clip-rule="evenodd"
            d="M304.148 298.009C304.148 298.009 271.554 303.633 258.516 295.757C244.13 287.063 217.829 245.847 217.829 245.847C207.549 247.288 200.937 252.361 196.658 259.743C196.658 259.743 208.759 305.488 231.378 332.151C247.446 351.087 284.432 384.742 284.432 384.742L304.148 298.009Z"
            fill="#0073E6" />
        <mask id="mask11_633_2893" style="mask-type:luminance" maskUnits="userSpaceOnUse" x="196" y="245" width="109"
            height="140">
            <path
                d="M304.147 298.008C304.147 298.008 271.553 303.632 258.516 295.756C244.129 287.062 217.828 245.846 217.828 245.846C207.549 247.287 200.937 252.36 196.657 259.742C196.657 259.742 208.758 305.487 231.378 332.15C247.445 351.086 284.431 384.741 284.431 384.741L304.147 298.008Z"
                fill="white" />
        </mask>
        <g mask="url(#mask11_633_2893)">
            <path fill-rule="evenodd" clip-rule="evenodd"
                d="M199.778 273.692C214.248 295.804 230.248 326.429 254.001 337.657C262.762 341.796 271.799 345.772 281.127 348.447C283.768 349.204 290.126 349.251 291.373 352.371C293.201 356.939 290.149 354.924 287.619 358.153C278.47 369.856 263.993 377.21 249.247 371.786C240.464 368.555 232.904 362.031 226.815 355.083C214.547 341.081 206.756 290.781 199.778 273.692Z"
                fill="#355C6B" />
        </g>
        <path fill-rule="evenodd" clip-rule="evenodd"
            d="M378.418 304.297C357.681 283.091 305.576 286.606 284.949 308.118C264.071 329.884 253.166 434.891 253.166 434.891L409.394 435.36C389.895 436.354 399.162 325.503 378.418 304.297Z"
            fill="#0073E6" />
        <mask id="mask12_633_2893" style="mask-type:luminance" maskUnits="userSpaceOnUse" x="253" y="290" width="157"
            height="146">
            <path
                d="M378.418 304.296C357.681 283.09 305.576 286.605 284.949 308.117C264.071 329.883 253.166 434.89 253.166 434.89L409.394 435.359C389.895 436.353 399.162 325.502 378.418 304.296Z"
                fill="white" />
        </mask>
        <g mask="url(#mask12_633_2893)">
            <path fill-rule="evenodd" clip-rule="evenodd"
                d="M378.166 344.598C370.913 355.225 380.278 372.841 375.86 384.845C370.055 400.633 376.368 406.103 381.278 421.103C382.823 425.827 383.084 431.207 386.435 435.118C393.89 443.811 408.345 445.349 417.329 438.215C424.158 432.789 427.859 424.155 430.023 415.939C431.926 408.73 432.493 401.156 432.068 393.716C431.344 380.971 383.435 352.188 378.166 344.598Z"
                fill="#0073E6" />
        </g>
        <path fill-rule="evenodd" clip-rule="evenodd"
            d="M325.903 357.469C325.47 357.732 325.045 357.987 324.619 358.234C318.791 361.633 312.836 364.85 307.411 368.89C302.232 372.748 296.889 377.884 295.21 384.352C294.859 385.692 294.501 387.61 294.814 389.207C295.06 390.461 295.702 391.528 296.926 392.133C297.926 392.618 299.031 392.722 300.15 392.573C301.657 392.364 303.18 391.692 304.389 391.05C309.418 388.379 313.269 384.032 316.649 379.543C320.843 373.985 325.388 366.409 327.485 358.632C331.649 356.026 335.895 352.666 337.82 348.147C339.895 343.267 338.716 338.33 337.895 333.474C337.149 329.041 336.709 324.67 340.119 320.511C343.41 316.499 349.977 311.312 354.484 305.639C357.648 301.656 359.79 297.422 359.357 293.198C359.346 293.079 359.312 292.964 359.256 292.858C359.199 292.753 359.123 292.66 359.031 292.584C358.938 292.508 358.832 292.451 358.718 292.417C358.603 292.383 358.483 292.371 358.365 292.384C357.865 292.435 357.499 292.882 357.551 293.382C357.932 297.174 355.902 300.931 353.059 304.507C348.559 310.171 341.999 315.35 338.716 319.356C334.91 323.991 335.261 328.838 336.104 333.778C336.865 338.298 338.074 342.892 336.141 347.435C334.604 351.058 331.418 353.842 328.074 356.087C328.119 355.876 328.157 355.666 328.194 355.456C329.268 349.409 328.649 343.39 325.149 338.191C322.642 334.46 319.134 331.442 315.985 328.172C312.985 325.058 310.299 321.713 309.269 317.182C307.299 308.524 308.262 302.752 317.269 292.947C317.432 292.769 317.519 292.534 317.509 292.293C317.499 292.052 317.394 291.824 317.217 291.661C317.038 291.497 316.802 291.412 316.56 291.422C316.318 291.432 316.09 291.537 315.926 291.715C306.329 302.17 305.389 308.355 307.493 317.586C308.605 322.461 311.448 326.086 314.679 329.435C317.754 332.628 321.187 335.564 323.642 339.207C326.873 344.002 327.388 349.562 326.403 355.138C326.261 355.92 326.095 356.698 325.903 357.469ZM325.179 360.013C319.53 363.302 313.754 366.433 308.5 370.35C303.635 373.972 298.545 378.737 296.971 384.81C296.725 385.756 296.449 387.039 296.523 388.222C296.583 389.17 296.851 390.065 297.732 390.498C298.583 390.916 299.568 390.871 300.516 390.655C301.605 390.401 302.657 389.909 303.53 389.446C308.329 386.897 311.97 382.726 315.202 378.446C318.933 373.495 322.97 366.9 325.179 360.013Z"
            fill="#023341" />
        <path fill-rule="evenodd" clip-rule="evenodd"
            d="M365.727 300.313C365.727 300.313 397.541 291.264 405.88 278.517C415.081 264.45 420.934 215.909 420.934 215.909C430.824 212.755 438.98 214.464 446.035 219.264C446.035 219.264 455.878 265.994 446.105 299.566C436.391 332.938 385.923 372.174 385.923 372.174L365.727 300.313Z"
            fill="#0073E6" />
        <mask id="mask13_633_2893" style="mask-type:luminance" maskUnits="userSpaceOnUse" x="365" y="214" width="86"
            height="159">
            <path
                d="M365.727 300.313C365.727 300.313 397.541 291.264 405.88 278.517C415.081 264.45 420.934 215.909 420.934 215.909C430.824 212.755 438.98 214.464 446.035 219.264C446.035 219.264 455.878 265.994 446.105 299.566C436.391 332.938 385.923 372.174 385.923 372.174L365.727 300.313Z"
                fill="white" />
        </mask>
        <g mask="url(#mask13_633_2893)">
            <path fill-rule="evenodd" clip-rule="evenodd"
                d="M450.21 226.47C449.098 236.502 449.956 240.583 448.822 256.69C447.202 279.536 435.292 298.329 419.628 314.91C409.419 325.717 397.584 335.399 384.218 342.041C379.375 344.448 369.502 346.476 369.592 353.421C369.659 358.779 373.681 363.827 377.256 367.401C389.472 379.604 408.501 380.739 422.911 371.701C432.239 365.848 439.194 356.748 446.62 348.702C486.947 305.002 447.404 249.603 450.21 226.47Z"
                fill="#355C6B" />
        </g>
        <path fill-rule="evenodd" clip-rule="evenodd"
            d="M326.111 272.543L345.759 272.828C343.035 280.214 344.25 283.979 347.052 290.907C322.064 339.172 315.625 322.809 324.092 291.351C327.404 286.639 328.502 280.619 326.111 272.543Z"
            fill="#FAD8BA" />
        <mask id="mask14_633_2893" style="mask-type:luminance" maskUnits="userSpaceOnUse" x="320" y="272" width="28"
            height="50">
            <path
                d="M326.111 272.544L345.759 272.829C343.035 280.215 344.25 283.98 347.052 290.908C322.064 339.173 315.625 322.81 324.092 291.352C327.404 286.64 328.502 280.62 326.111 272.544Z"
                fill="white" />
        </mask>
        <g mask="url(#mask14_633_2893)">
            <path fill-rule="evenodd" clip-rule="evenodd"
                d="M323.988 284.142C327.576 289.347 333.736 291.464 339.829 290.19C343.34 289.46 346.685 287.247 347.436 283.508C348.197 279.699 345.846 276.676 342.656 274.859C337.677 272.029 328.492 280.505 323.988 284.142Z"
                fill="#D7B699" />
            <path fill-rule="evenodd" clip-rule="evenodd"
                d="M324.815 260.305C323.617 269.478 322.297 278.785 322.914 288.047C323.234 292.86 316.893 315.225 326.922 317.753C335.657 319.95 337.193 322.754 331.388 327.932C325.684 333.01 317.998 332.811 313.339 326.486C310.594 322.765 309.175 318.051 308.342 313.558C306.511 303.667 322.732 270.063 324.815 260.305Z"
                fill="#D7B699" />
        </g>
        <path fill-rule="evenodd" clip-rule="evenodd"
            d="M335.343 248.967C327.745 248.967 321.578 257.12 321.578 267.162C321.578 277.204 322.896 285.916 330.486 285.916C338.083 285.916 349.101 277.204 349.101 267.162C349.101 257.12 342.933 248.967 335.343 248.967Z"
            fill="#FAD8BA" />
        <path fill-rule="evenodd" clip-rule="evenodd"
            d="M322.578 262.219C327.235 264.17 334.792 264.657 339.253 262.138C338.613 264.208 339.201 266.899 339.662 268.921C340.21 271.318 340.907 273.81 342.314 275.856C345.541 280.541 351.611 281.233 356.775 279.987C371.064 276.54 380.915 261.795 378.845 247.309C377.687 239.207 372.626 229.146 362.931 231.777C362.735 223.741 354.153 217.722 346.838 217.319C334.798 216.655 320.711 225.907 322.417 239.155C320.186 238.827 318.036 241.366 316.97 242.967C313.88 247.584 314.774 258.949 322.578 262.219Z"
            fill="#03222F" />
        <path fill-rule="evenodd" clip-rule="evenodd"
            d="M449.473 219.073L416.575 175.93L404.943 184.799L401.494 132.026L451.473 149.32L439.84 158.19L472.738 201.333L449.473 219.073Z"
            fill="#A6D2E4" />
        <path
            d="M409.769 167.24C408.416 165.467 407.798 163.661 407.909 161.829C408.022 159.995 408.855 158.485 410.402 157.306C411.973 156.108 413.653 155.69 415.442 156.053C417.231 156.416 418.836 157.532 420.259 159.398L421.349 160.828C422.712 162.615 423.331 164.415 423.202 166.229C423.073 168.044 422.236 169.541 420.686 170.722C419.127 171.911 417.45 172.326 415.655 171.969C413.859 171.61 412.257 170.503 410.844 168.65L409.769 167.24ZM414.099 166.357C414.704 167.151 415.382 167.644 416.129 167.839C416.875 168.034 417.558 167.895 418.173 167.427C418.788 166.958 419.09 166.34 419.079 165.573C419.068 164.807 418.75 164.013 418.124 163.193L417.004 161.723C416.399 160.929 415.727 160.425 414.991 160.212C414.255 159.999 413.567 160.136 412.93 160.622C412.328 161.081 412.023 161.696 412.016 162.465C412.013 163.232 412.337 164.047 412.993 164.907L414.099 166.357ZM433.638 174.757C432.276 172.97 431.661 171.162 431.797 169.331C431.93 167.503 432.765 166.003 434.305 164.828C435.864 163.639 437.536 163.217 439.321 163.562C441.103 163.91 442.716 165.03 444.159 166.923L445.249 168.352C446.602 170.126 447.224 171.918 447.113 173.73C446.999 175.544 446.157 177.049 444.586 178.247C443.006 179.452 441.317 179.871 439.523 179.502C437.732 179.13 436.142 178.04 434.759 176.226L433.638 174.757ZM437.983 173.893C438.539 174.621 439.21 175.093 440 175.307C440.79 175.521 441.479 175.404 442.073 174.951C443.413 173.929 443.402 172.524 442.04 170.737L440.889 169.228C440.283 168.434 439.609 167.938 438.868 167.739C438.128 167.539 437.449 167.675 436.834 168.144C436.216 168.615 435.908 169.232 435.901 170.001C435.897 170.768 436.212 171.57 436.848 172.404L437.983 173.893ZM432.086 183.728L428.614 183.989L423.099 152.46L426.574 152.196L432.086 183.728Z"
            fill="white" />
        <path fill-rule="evenodd" clip-rule="evenodd"
            d="M426.227 213.585C426.227 213.585 430.993 207.397 434.352 200.33C437.711 193.262 438.041 186.384 435.085 184.979C432.128 183.574 427.003 188.172 423.643 195.239C420.284 202.306 426.227 213.585 426.227 213.585Z"
            fill="#FAD8BA" />
        <path
            d="M132.415 186.844L131.464 190.202H113.639L114.591 186.844H132.415ZM123.741 208L114.006 196.185L113.979 193.534H118.806C120.011 193.534 121.031 193.348 121.865 192.976C122.699 192.604 123.333 192.065 123.768 191.358C124.203 190.642 124.421 189.772 124.421 188.748C124.421 187.225 123.968 186.015 123.061 185.117C122.155 184.22 120.736 183.771 118.806 183.771H113.639L114.631 180.155H118.806C121.053 180.155 122.907 180.513 124.366 181.229C125.826 181.945 126.913 182.938 127.63 184.207C128.346 185.476 128.704 186.939 128.704 188.598C128.704 190.076 128.409 191.413 127.82 192.609C127.231 193.805 126.293 194.78 125.005 195.532C123.718 196.285 122.028 196.724 119.934 196.851L119.812 196.878L128.704 207.769V208H123.741ZM132.429 180.155L131.464 183.54L117.215 183.459L118.18 180.155H132.429Z"
            fill="white" />
        <path
            d="M196.429 208.705L194.614 210.654L182.509 204.448L184.325 202.499L196.429 208.705ZM183.173 220.052L180.676 208.639L181.58 206.829L184.858 208.509C185.677 208.929 186.434 209.158 187.129 209.196C187.825 209.234 188.444 209.089 188.985 208.76C189.53 208.425 189.981 207.91 190.337 207.214C190.868 206.18 190.981 205.201 190.678 204.276C190.375 203.351 189.568 202.552 188.257 201.88L184.748 200.081L186.681 197.971L189.516 199.424C191.042 200.207 192.177 201.095 192.918 202.089C193.66 203.084 194.053 204.137 194.097 205.248C194.142 206.359 193.875 207.477 193.298 208.604C192.784 209.607 192.118 210.413 191.301 211.02C190.485 211.627 189.508 211.962 188.372 212.025C187.236 212.088 185.935 211.798 184.469 211.155L184.377 211.131L186.623 221.623L186.543 221.779L183.173 220.052ZM198.767 204.167L196.933 206.13L187.285 201.114L189.091 199.206L198.767 204.167Z"
            fill="white" />
    </g>
</svg>