<svg width="24" height="24" viewBox="0 0 24 24" fill="none" xmlns="http://www.w3.org/2000/svg">
<g id="Email">
<path id="Vector" d="M20.0325 19.9944H3.96753C3.12246 19.9934 2.31228 19.6573 1.71472 19.0597C1.11717 18.4621 0.781022 17.652 0.780029 16.8069V7.19189C0.781022 6.34682 1.11717 5.53665 1.71472 4.93909C2.31228 4.34153 3.12246 4.00539 3.96753 4.00439H20.0325C20.8776 4.00539 21.6878 4.34153 22.2853 4.93909C22.8829 5.53665 23.219 6.34682 23.22 7.19189V16.8069C23.219 17.652 22.8829 18.4621 22.2853 19.0597C21.6878 19.6573 20.8776 19.9934 20.0325 19.9944ZM3.96753 5.12939C3.42052 5.12939 2.89592 5.34669 2.50912 5.73349C2.12233 6.12028 1.90503 6.64489 1.90503 7.19189V16.8069C1.90503 17.3539 2.12233 17.8785 2.50912 18.2653C2.89592 18.6521 3.42052 18.8694 3.96753 18.8694H20.0325C20.5795 18.8694 21.1041 18.6521 21.4909 18.2653C21.8777 17.8785 22.095 17.3539 22.095 16.8069V7.19189C22.095 6.64489 21.8777 6.12028 21.4909 5.73349C21.1041 5.34669 20.5795 5.12939 20.0325 5.12939H3.96753Z" fill="white"/>
<path id="Vector_2" d="M11.9999 14.2801C11.306 14.2812 10.6307 14.056 10.0762 13.6388L1.31993 7.01633C1.25806 6.97291 1.20558 6.91747 1.16562 6.85331C1.12566 6.78916 1.09903 6.71761 1.08734 6.64293C1.07565 6.56826 1.07912 6.492 1.09756 6.4187C1.116 6.3454 1.14902 6.27656 1.19465 6.21631C1.24028 6.15606 1.29759 6.10562 1.36315 6.068C1.42871 6.03039 1.50117 6.00638 1.57622 5.99739C1.65127 5.98841 1.72736 5.99465 1.79994 6.01573C1.87252 6.03681 1.94012 6.0723 1.99868 6.12008L10.7549 12.7501C11.1145 13.0185 11.5512 13.1635 11.9999 13.1635C12.4486 13.1635 12.8853 13.0185 13.2449 12.7501L22.0012 6.12008C22.0597 6.0723 22.1273 6.03681 22.1999 6.01573C22.2725 5.99465 22.3486 5.98841 22.4236 5.99739C22.4987 6.00638 22.5712 6.03039 22.6367 6.068C22.7023 6.10562 22.7596 6.15606 22.8052 6.21631C22.8508 6.27656 22.8839 6.3454 22.9023 6.4187C22.9207 6.492 22.9242 6.56826 22.9125 6.64293C22.9008 6.71761 22.8742 6.78916 22.8342 6.85331C22.7943 6.91747 22.7418 6.97291 22.6799 7.01633L13.9237 13.6388C13.3692 14.056 12.6938 14.2812 11.9999 14.2801Z" fill="white"/>
<path id="Vector_3" d="M1.56357 18.4272C1.44949 18.4274 1.33805 18.3929 1.24404 18.3283C1.15003 18.2636 1.0779 18.1719 1.03722 18.0653C0.996541 17.9587 0.98923 17.8423 1.01626 17.7315C1.04329 17.6206 1.10339 17.5206 1.18857 17.4447L8.08857 11.291C8.19996 11.1915 8.3463 11.1404 8.49539 11.1488C8.64448 11.1573 8.78411 11.2246 8.88357 11.336C8.98303 11.4474 9.03416 11.5937 9.02572 11.7428C9.01728 11.8919 8.94996 12.0315 8.83857 12.131L1.93857 18.2847C1.8361 18.378 1.7021 18.4289 1.56357 18.4272ZM22.4361 18.4272C22.2975 18.4289 22.1635 18.378 22.0611 18.2847L15.1611 12.131C15.0497 12.0315 14.9824 11.8919 14.9739 11.7428C14.9655 11.5937 15.0166 11.4474 15.1161 11.336C15.2155 11.2246 15.3552 11.1573 15.5042 11.1488C15.6533 11.1404 15.7997 11.1915 15.9111 11.291L22.8073 17.4447C22.8925 17.5206 22.9526 17.6206 22.9796 17.7315C23.0067 17.8423 22.9993 17.9587 22.9587 18.0653C22.918 18.1719 22.8459 18.2636 22.7519 18.3283C22.6578 18.3929 22.5464 18.4274 22.4323 18.4272H22.4361Z" fill="white"/>
</g>
</svg>
