<svg width="45" height="46" viewBox="0 0 45 46" fill="none" xmlns="http://www.w3.org/2000/svg">
<g id="Email">
<path id="Vector" d="M37.5316 37.8408H7.70975C6.14102 37.8389 4.63707 37.215 3.52782 36.1057C2.41856 34.9964 1.79457 33.4925 1.79272 31.9238V14.0752C1.79457 12.5065 2.41856 11.0026 3.52782 9.89329C4.63707 8.78404 6.14102 8.16005 7.70975 8.1582H37.5316C39.1003 8.16005 40.6042 8.78404 41.7135 9.89329C42.8228 11.0026 43.4467 12.5065 43.4486 14.0752V31.9238C43.4467 33.4925 42.8228 34.9964 41.7135 36.1057C40.6042 37.215 39.1003 37.8389 37.5316 37.8408ZM7.70975 10.2466C6.69433 10.2466 5.72049 10.6499 5.00248 11.368C4.28446 12.086 3.88109 13.0598 3.88109 14.0752V31.9238C3.88109 32.9392 4.28446 33.913 5.00248 34.631C5.72049 35.3491 6.69433 35.7524 7.70975 35.7524H37.5316C38.547 35.7524 39.5208 35.3491 40.2388 34.631C40.9568 33.913 41.3602 32.9392 41.3602 31.9238V14.0752C41.3602 13.0598 40.9568 12.086 40.2388 11.368C39.5208 10.6499 38.547 10.2466 37.5316 10.2466H7.70975Z" fill="#32092F"/>
<path id="Vector_2" d="M22.6204 27.2326C21.3323 27.2346 20.0786 26.8167 19.0493 26.0422L2.79492 13.7487C2.68007 13.6681 2.58265 13.5652 2.50847 13.4461C2.43429 13.327 2.38487 13.1942 2.36316 13.0556C2.34145 12.917 2.3479 12.7754 2.38213 12.6393C2.41635 12.5033 2.47765 12.3755 2.56236 12.2636C2.64706 12.1518 2.75344 12.0581 2.87514 11.9883C2.99684 11.9185 3.13137 11.8739 3.27068 11.8573C3.40999 11.8406 3.55124 11.8522 3.68598 11.8913C3.82071 11.9304 3.94619 11.9963 4.0549 12.085L20.3093 24.3924C20.9768 24.8907 21.7875 25.1599 22.6204 25.1599C23.4534 25.1599 24.2641 24.8907 24.9316 24.3924L41.186 12.085C41.2947 11.9963 41.4202 11.9304 41.5549 11.8913C41.6896 11.8522 41.8309 11.8406 41.9702 11.8573C42.1095 11.8739 42.244 11.9185 42.3657 11.9883C42.4874 12.0581 42.5938 12.1518 42.6785 12.2636C42.7632 12.3755 42.8245 12.5033 42.8587 12.6393C42.893 12.7754 42.8994 12.917 42.8777 13.0556C42.856 13.1942 42.8066 13.327 42.7324 13.4461C42.6582 13.5652 42.5608 13.6681 42.446 13.7487L26.1915 26.0422C25.1622 26.8167 23.9086 27.2346 22.6204 27.2326Z" fill="#32092F"/>
<path id="Vector_3" d="M3.24786 34.9317C3.03609 34.932 2.82922 34.8679 2.65471 34.7479C2.4802 34.6279 2.34631 34.4577 2.27079 34.2598C2.19527 34.062 2.1817 33.8458 2.23188 33.6401C2.28206 33.4343 2.39361 33.2487 2.55174 33.1078L15.3604 21.6845C15.5671 21.4999 15.8388 21.405 16.1156 21.4206C16.3923 21.4363 16.6515 21.5612 16.8361 21.768C17.0208 21.9748 17.1157 22.2465 17.1 22.5232C17.0844 22.8 16.9594 23.0592 16.7526 23.2438L3.94398 34.6671C3.75377 34.8402 3.50501 34.9347 3.24786 34.9317ZM41.9939 34.9317C41.7368 34.9347 41.488 34.8402 41.2978 34.6671L28.4892 23.2438C28.2824 23.0592 28.1575 22.8 28.1418 22.5232C28.1261 22.2465 28.221 21.9748 28.4057 21.768C28.5903 21.5612 28.8495 21.4363 29.1263 21.4206C29.403 21.405 29.6747 21.4999 29.8814 21.6845L42.6831 33.1078C42.8412 33.2487 42.9528 33.4343 43.003 33.6401C43.0531 33.8458 43.0396 34.062 42.9641 34.2598C42.8885 34.4577 42.7546 34.6279 42.5801 34.7479C42.4056 34.8679 42.1988 34.932 41.987 34.9317H41.9939Z" fill="#32092F"/>
</g>
</svg>
