<svg width="465" height="416" viewBox="0 0 465 416" fill="none" xmlns="http://www.w3.org/2000/svg">
    <g opacity="0.85">
        <path
            d="M310.652 190.52L231.326 190.52C226.851 190.52 223.189 186.859 223.189 182.384L223.189 130.855C223.189 126.38 226.851 122.719 231.326 122.719L310.652 122.719C315.127 122.719 318.788 126.38 318.788 130.855L318.788 182.384C318.788 186.859 315.127 190.52 310.652 190.52Z"
            fill="white" />
        <path
            d="M218.85 132.279L218.85 183.198C218.85 190.249 224.546 195.944 231.597 195.944L307.94 195.944C314.992 195.944 320.687 190.249 320.687 183.198L320.687 132.279C320.687 125.228 314.992 119.533 307.94 119.533L231.597 119.533C224.546 119.533 218.85 125.228 218.85 132.279ZM225.495 184.486C225.427 184.079 225.224 183.672 225.224 183.265L225.224 132.347C225.224 131.669 225.427 131.059 225.63 130.516L252.547 153.636L225.495 184.486ZM307.94 125.906C308.347 125.906 308.754 126.042 309.161 126.177L269.769 159.942L230.376 126.177C230.783 126.109 231.122 125.906 231.597 125.906L307.94 125.906ZM286.99 153.501L313.907 130.381C314.11 130.991 314.314 131.601 314.314 132.211L314.314 183.13C314.314 183.604 314.178 183.943 314.043 184.35L286.99 153.501ZM231.597 189.571C230.919 189.571 230.376 189.367 229.766 189.232L257.361 157.705L267.667 166.586C268.277 167.129 269.023 167.332 269.769 167.332C270.515 167.332 271.26 167.061 271.871 166.586L282.176 157.705L309.771 189.232C309.161 189.435 308.619 189.571 307.94 189.571L231.597 189.571Z"
            fill="#0073E6" />
        <path
            d="M349.299 336.291L289.634 336.291C285.16 336.291 281.498 332.63 281.498 328.155L281.498 290.594C281.498 286.119 285.16 282.458 289.634 282.458L349.299 282.458C353.774 282.458 357.435 286.119 357.435 290.594L357.435 328.155C357.435 332.63 353.774 336.291 349.299 336.291Z"
            fill="white" />
        <path
            d="M279.329 289.713L279.329 329.986C279.329 335.546 283.803 340.089 289.431 340.089L349.841 340.089C355.401 340.089 359.944 335.614 359.944 329.986L359.944 289.713C359.944 284.153 355.469 279.61 349.841 279.61L289.431 279.61C283.871 279.678 279.329 284.153 279.329 289.713ZM284.549 331.003C284.481 330.664 284.346 330.393 284.346 329.986L284.346 289.713C284.346 289.17 284.481 288.696 284.617 288.221L305.907 306.459L284.549 331.003ZM349.841 284.695C350.18 284.695 350.452 284.831 350.791 284.899L319.67 311.612L288.55 284.899C288.889 284.831 289.16 284.695 289.499 284.695L349.841 284.695ZM333.23 306.527L354.52 288.289C354.655 288.763 354.791 289.238 354.791 289.78L354.791 330.054C354.791 330.393 354.655 330.732 354.587 331.071L333.23 306.527ZM289.431 335.004C288.889 335.004 288.482 334.868 288.007 334.732L309.839 309.782L318.043 316.765C318.517 317.172 319.128 317.375 319.67 317.375C320.28 317.375 320.823 317.172 321.297 316.765L329.501 309.782L351.333 334.732C350.858 334.868 350.384 335.004 349.909 335.004L289.431 335.004Z"
            fill="#497EAD" />
        <path
            d="M389.979 264.423L365.571 264.423C361.096 264.423 357.435 260.761 357.435 256.287L357.435 241.777C357.435 237.302 361.096 233.641 365.571 233.641L389.979 233.641C394.454 233.641 398.115 237.302 398.115 241.777L398.115 256.287C398.115 260.761 394.454 264.423 389.979 264.423Z"
            fill="white" />
        <path
            d="M356.418 238.387L356.418 259.541C356.418 262.456 358.791 264.829 361.706 264.829L393.437 264.829C396.353 264.829 398.726 262.456 398.726 259.541L398.726 238.387C398.726 235.472 396.353 233.099 393.437 233.099L361.706 233.099C358.791 233.166 356.418 235.472 356.418 238.387ZM359.198 260.083C359.13 259.88 359.062 259.744 359.062 259.541L359.062 238.387C359.062 238.116 359.13 237.845 359.198 237.641L370.385 247.201L359.198 260.083ZM393.437 235.811C393.641 235.811 393.776 235.878 393.912 235.878L377.572 249.913L361.232 235.878C361.367 235.878 361.571 235.811 361.706 235.811L393.437 235.811ZM384.691 247.201L395.878 237.641C395.946 237.912 396.014 238.116 396.014 238.387L396.014 259.541C396.014 259.744 395.946 259.88 395.878 260.083L384.691 247.201ZM361.706 262.185C361.435 262.185 361.164 262.117 360.961 262.05L372.419 248.964L376.69 252.625C376.962 252.829 377.233 252.964 377.572 252.964C377.911 252.964 378.182 252.829 378.453 252.625L382.725 248.964L394.183 262.05C393.912 262.117 393.708 262.185 393.437 262.185L361.706 262.185Z"
            fill="#0073E6" />
        <path
            d="M253.158 202.249C254.281 202.249 255.192 201.339 255.192 200.215C255.192 199.092 254.281 198.181 253.158 198.181C252.034 198.181 251.124 199.092 251.124 200.215C251.124 201.339 252.034 202.249 253.158 202.249Z"
            fill="#6B6B6B" />
        <path
            d="M246.716 205.708C247.84 205.708 248.75 204.797 248.75 203.674C248.75 202.55 247.84 201.64 246.716 201.64C245.593 201.64 244.682 202.55 244.682 203.674C244.682 204.797 245.593 205.708 246.716 205.708Z"
            fill="#6B6B6B" />
        <path
            d="M240.411 209.368C241.534 209.368 242.445 208.458 242.445 207.334C242.445 206.211 241.534 205.3 240.411 205.3C239.288 205.3 238.377 206.211 238.377 207.334C238.377 208.458 239.288 209.368 240.411 209.368Z"
            fill="#6B6B6B" />
        <path
            d="M235.326 214.59C236.449 214.59 237.36 213.679 237.36 212.556C237.36 211.432 236.449 210.521 235.326 210.521C234.202 210.521 233.292 211.432 233.292 212.556C233.292 213.679 234.202 214.59 235.326 214.59Z"
            fill="#6B6B6B" />
        <path
            d="M230.987 220.42C232.11 220.42 233.021 219.509 233.021 218.386C233.021 217.263 232.11 216.352 230.987 216.352C229.863 216.352 228.953 217.263 228.953 218.386C228.953 219.509 229.863 220.42 230.987 220.42Z"
            fill="#6B6B6B" />
        <path
            d="M227.664 226.929C228.788 226.929 229.698 226.019 229.698 224.895C229.698 223.772 228.788 222.861 227.664 222.861C226.541 222.861 225.63 223.772 225.63 224.895C225.63 226.019 226.541 226.929 227.664 226.929Z"
            fill="#6B6B6B" />
        <path
            d="M225.563 233.912C226.686 233.912 227.597 233.002 227.597 231.878C227.597 230.755 226.686 229.844 225.563 229.844C224.439 229.844 223.529 230.755 223.529 231.878C223.529 233.002 224.439 233.912 225.563 233.912Z"
            fill="#6B6B6B" />
        <path
            d="M264.345 262.728C265.468 262.728 266.379 261.817 266.379 260.694C266.379 259.57 265.468 258.66 264.345 258.66C263.221 258.66 262.311 259.57 262.311 260.694C262.311 261.817 263.221 262.728 264.345 262.728Z"
            fill="#6B6B6B" />
        <path
            d="M257.022 262.728C258.146 262.728 259.056 261.817 259.056 260.694C259.056 259.57 258.146 258.66 257.022 258.66C255.899 258.66 254.988 259.57 254.988 260.694C254.988 261.817 255.899 262.728 257.022 262.728Z"
            fill="#6B6B6B" />
        <path
            d="M249.7 262.728C250.823 262.728 251.734 261.817 251.734 260.694C251.734 259.57 250.823 258.66 249.7 258.66C248.576 258.66 247.666 259.57 247.666 260.694C247.666 261.817 248.576 262.728 249.7 262.728Z"
            fill="#6B6B6B" />
        <path
            d="M242.377 262.728C243.501 262.728 244.411 261.817 244.411 260.694C244.411 259.57 243.501 258.66 242.377 258.66C241.254 258.66 240.343 259.57 240.343 260.694C240.343 261.817 241.254 262.728 242.377 262.728Z"
            fill="#6B6B6B" />
        <path
            d="M235.055 262.728C236.178 262.728 237.089 261.817 237.089 260.694C237.089 259.57 236.178 258.66 235.055 258.66C233.931 258.66 233.021 259.57 233.021 260.694C233.021 261.817 233.931 262.728 235.055 262.728Z"
            fill="#6B6B6B" />
        <path
            d="M349.096 250.93C350.219 250.93 351.13 250.02 351.13 248.896C351.13 247.773 350.219 246.862 349.096 246.862C347.972 246.862 347.062 247.773 347.062 248.896C347.062 250.02 347.972 250.93 349.096 250.93Z"
            fill="#6B6B6B" />
        <path
            d="M341.773 250.727C342.896 250.727 343.807 249.816 343.807 248.693C343.807 247.569 342.896 246.659 341.773 246.659C340.65 246.659 339.739 247.569 339.739 248.693C339.739 249.816 340.65 250.727 341.773 250.727Z"
            fill="#6B6B6B" />
        <path
            d="M334.451 250.524C335.574 250.524 336.485 249.613 336.485 248.49C336.485 247.366 335.574 246.456 334.451 246.456C333.327 246.456 332.417 247.366 332.417 248.49C332.417 249.613 333.327 250.524 334.451 250.524Z"
            fill="#6B6B6B" />
        <path
            d="M327.332 252.286C328.455 252.286 329.366 251.376 329.366 250.252C329.366 249.129 328.455 248.218 327.332 248.218C326.208 248.218 325.298 249.129 325.298 250.252C325.298 251.376 326.208 252.286 327.332 252.286Z"
            fill="#6B6B6B" />
        <path
            d="M320.28 254.253C321.403 254.253 322.314 253.342 322.314 252.219C322.314 251.095 321.403 250.185 320.28 250.185C319.157 250.185 318.246 251.095 318.246 252.219C318.246 253.342 319.157 254.253 320.28 254.253Z"
            fill="#6B6B6B" />
        <path
            d="M314.246 258.321C315.369 258.321 316.28 257.41 316.28 256.287C316.28 255.164 315.369 254.253 314.246 254.253C313.123 254.253 312.212 255.164 312.212 256.287C312.212 257.41 313.123 258.321 314.246 258.321Z"
            fill="#6B6B6B" />
        <path
            d="M308.754 263.067C309.877 263.067 310.788 262.156 310.788 261.033C310.788 259.909 309.877 258.999 308.754 258.999C307.631 258.999 306.72 259.909 306.72 261.033C306.72 262.156 307.631 263.067 308.754 263.067Z"
            fill="#6B6B6B" />
        <path
            d="M304.347 268.898C305.47 268.898 306.381 267.987 306.381 266.864C306.381 265.74 305.47 264.83 304.347 264.83C303.224 264.83 302.313 265.74 302.313 266.864C302.313 267.987 303.224 268.898 304.347 268.898Z"
            fill="#6B6B6B" />
        <path
            d="M301.228 275.474C302.352 275.474 303.262 274.564 303.262 273.44C303.262 272.317 302.352 271.406 301.228 271.406C300.105 271.406 299.194 272.317 299.194 273.44C299.194 274.564 300.105 275.474 301.228 275.474Z"
            fill="#6B6B6B" />
        <path
            d="M161.355 475.961C161.898 475.757 162.372 475.622 162.915 475.418C162.915 475.418 162.711 475.012 162.372 474.198C156.813 462.672 110.572 371.548 21.4145 354.055C20.7365 353.919 19.9907 353.784 19.3127 353.648C7.98996 351.614 -3.94297 350.733 -16.5539 351.343C-16.5539 351.343 -34.2499 351.682 -56.0139 367.005C-56.4885 367.344 -56.9631 367.683 -57.5055 368.022C-67.2688 375.141 -77.778 385.379 -87.8803 399.888L-88.4905 400.702C-88.4905 400.702 -88.3549 401.109 -88.0159 401.855C-84.897 409.041 -66.7264 447.349 -23.7408 472.503C-23.1984 472.842 -22.5882 473.181 -22.0458 473.452C16.9397 495.759 75.7229 507.014 161.355 475.961Z"
            fill="#114A70" />
        <path
            d="M162.711 476.368L162.915 475.419L163.118 474.47L162.372 474.266L-87.8803 400.024L-88.4905 400.838C-88.4905 400.838 -88.3549 401.245 -88.0159 401.991L161.355 475.961L162.711 476.368Z"
            fill="white" />
        <path
            d="M-21.9779 473.656L15.3803 431.755L14.1599 430.263L-23.6729 472.707C-23.1305 473.046 -22.5881 473.317 -21.9779 473.656ZM61.078 445.247L63.1799 445.518L21.4146 354.123C20.7366 353.987 19.9908 353.852 19.3128 353.716L61.078 445.247ZM-32.6226 418.127L-31.131 417.178L-56.0816 367.073C-56.5562 367.412 -57.0308 367.751 -57.5732 368.09L-32.6226 418.127Z"
            fill="white" />
        <path
            d="M157.83 471.961L158.643 472.571C158.643 472.571 158.779 472.3 159.118 471.893C163.457 465.045 196.679 409.313 175.865 355.547C175.729 355.14 175.526 354.666 175.39 354.259C172.678 347.479 169.085 340.766 164.474 334.19C164.474 334.19 158.304 324.833 142.71 318.324C142.371 318.189 142.032 318.053 141.625 317.918C134.506 315.07 125.421 312.9 114.234 312.426L113.556 312.426C113.556 312.426 113.42 312.629 113.081 313.104C110.301 317.172 95.8597 339.885 96.9445 371.548C96.9445 371.955 96.9445 372.362 97.0123 372.768C98.3006 401.177 112.2 436.501 157.83 471.961Z"
            fill="#497EAD" />
        <path
            d="M158.101 472.842L158.711 472.639L159.321 472.436L159.186 471.961L114.234 312.562L113.556 312.562C113.556 312.562 113.42 312.765 113.081 313.24L157.83 472.097L158.101 472.842Z"
            fill="white" />
        <path
            d="M97.0123 372.768L132.133 378.667L132.472 377.514L96.8767 371.548C96.9445 371.955 96.9445 372.362 97.0123 372.768ZM140.405 407.754L140.947 408.974L175.865 355.615C175.729 355.208 175.526 354.733 175.39 354.327L140.405 407.754ZM123.183 348.292L124.2 348.767L142.642 318.392C142.303 318.257 141.964 318.121 141.557 317.985L123.183 348.292Z"
            fill="white" />
        <path
            d="M158.372 475.622C158.847 475.69 159.321 475.69 159.728 475.758L159.728 474.741C159.728 464.706 157.626 384.634 96.0631 341.783C95.5885 341.444 95.1139 341.105 94.5715 340.766C86.7066 335.478 77.8926 330.732 68.0615 326.867C68.0615 326.867 54.4335 321.036 32.3305 324.426C31.8559 324.494 31.3135 324.562 30.8388 324.63C20.8043 326.325 9.07482 329.918 -3.87512 336.698C-4.14633 336.834 -4.34973 336.97 -4.62094 337.105C-4.62094 337.105 -4.62094 337.444 -4.68874 338.122C-4.95994 344.224 -5.02774 377.447 18.6347 409.923C18.9737 410.33 19.2449 410.737 19.5839 411.211C41.1446 440.095 81.8928 468.164 158.372 475.622Z"
            fill="#0073E6" />
        <path
            d="M159.253 476.368L159.728 475.758L160.203 475.147L159.728 474.741L-3.8751 336.698C-4.14631 336.834 -4.34971 336.969 -4.62092 337.105C-4.62092 337.105 -4.62092 337.444 -4.68872 338.122L158.304 475.622L159.253 476.368Z"
            fill="white" />
        <path
            d="M19.584 411.144L63.2477 394.397L62.8408 392.905L18.6348 409.856C18.9738 410.33 19.245 410.737 19.584 411.144ZM93.2156 419.551L94.7072 420.5L96.131 341.716C95.6564 341.377 95.1818 341.038 94.6394 340.699L93.2156 419.551ZM31.6525 368.362L33.1441 368.226L32.3305 324.359C31.8559 324.427 31.3135 324.495 30.8389 324.562L31.6525 368.362Z"
            fill="white" />
        <path d="M170.237 236.286L156.88 253.304L169.627 260.219L183.933 242.523L170.237 236.286Z" fill="#CC9271" />
        <path
            d="M204.477 237.506C204.07 234.93 203.799 232.285 203.595 229.641C203.46 227.539 203.527 225.438 203.595 223.336C203.799 221.234 203.799 219.132 203.663 217.166C203.663 217.234 203.595 217.301 203.595 217.369C203.46 215.606 203.188 213.844 202.714 212.149C201.358 207.877 198.578 203.877 194.239 202.385C185.56 199.47 174.983 207.606 170.576 220.624C166.169 233.641 169.627 246.591 178.305 249.507C184.475 251.609 191.594 248.083 196.747 241.235C198.781 241.167 200.815 241.032 202.782 240.489C203.46 240.286 204.138 240.015 204.477 239.404C204.68 238.794 204.612 238.116 204.477 237.506Z"
            fill="#DBA17B" />
        <path
            d="M211.663 216.081C214.443 215.131 216.816 212.758 217.359 209.911C217.901 206.995 216.274 203.741 213.494 202.792C211.392 202.046 208.884 202.656 206.985 201.571C205.833 200.893 205.087 199.741 204.273 198.724C199.798 193.028 192.408 189.774 185.221 190.316C178.034 190.859 171.186 195.13 167.593 201.368C164.542 206.656 163.796 212.962 164.339 218.996C164.881 225.03 166.712 230.929 168.474 236.692C171.458 230.793 174.441 224.895 177.424 219.064C178.102 217.776 178.78 216.42 180.001 215.674C181.221 214.928 183.119 214.996 183.797 216.216C184.272 217.03 184.136 218.047 184.136 218.928C184.136 219.878 184.272 220.962 185.086 221.369C185.967 221.844 187.12 221.301 187.933 220.691C189.696 219.403 191.255 217.844 192.679 216.148C193.561 215.064 194.442 213.708 195.73 213.165C197.154 212.555 198.375 213.233 199.663 213.979C201.426 214.996 203.256 215.945 205.29 216.352C207.392 216.759 209.629 216.759 211.663 216.081ZM202.714 339.41C205.358 356.36 207.867 385.854 210.511 402.804C214.376 427.687 202.104 464.909 197.561 489.657C194.239 489.25 191.323 488.233 188.001 487.826C189.086 445.857 187.187 392.363 184.475 350.462C190.374 351.208 196.815 338.664 202.714 339.41Z"
            fill="#114A70" />
        <path
            d="M161.559 351.208C165.016 351.411 168.407 348.292 171.864 348.563C176.068 348.835 180.611 349.648 184.611 350.869C188.611 352.089 193.289 348.36 197.222 347.004C198.035 353.784 196.612 365.853 195.323 372.565C192.34 388.295 188.882 403.889 184.882 419.347C182.712 427.89 176.271 436.094 172.881 444.23C171.458 447.688 170.102 451.281 168.813 454.807C166.101 462.13 161.423 482.741 158.711 490.063C155.389 489.792 151.999 489.724 148.677 489.453C149.016 482.063 151.931 460.774 152.202 453.383C152.745 441.044 158.914 428.094 163.796 416.703C161.355 404.906 161.287 392.091 161.355 380.023C161.423 369.378 161.491 361.784 161.559 351.208Z"
            fill="#0E538C" />
        <path
            d="M208.409 305.646C209.629 305.849 211.053 305.782 212.002 304.968C212.477 304.561 212.816 303.951 213.155 303.476C214.308 302.12 216.274 301.442 217.969 301.849C221.494 302.731 223.189 307.205 226.715 307.951C227.258 308.087 227.8 308.087 228.342 308.29C228.885 308.494 229.359 308.833 229.427 309.375C229.563 310.053 229.088 310.595 228.614 311.138C228.003 311.816 227.325 312.494 226.715 313.172C226.444 313.443 226.105 313.782 225.766 313.918C225.02 314.257 224.071 313.918 223.461 314.392C222.918 314.799 222.783 315.613 222.172 316.02C221.291 316.562 220.071 315.748 219.054 316.155C218.511 316.359 218.172 316.833 217.765 317.104C217.02 317.579 216.003 317.511 215.121 317.24C214.24 316.901 213.494 316.359 212.748 315.952C211.731 315.409 210.646 315.003 209.562 314.664C206.578 313.918 203.392 314.121 200.273 314.392C200.137 311.951 200.069 309.511 199.934 307.07C199.934 306.663 199.934 306.188 200.137 305.782C200.544 305.036 201.629 305.036 202.51 305.239C203.595 305.51 204.137 305.443 205.154 305.239C206.171 305.036 207.392 305.51 208.409 305.646Z"
            fill="#DBA17B" />
        <path
            d="M216.41 315.002C216.071 314.46 216.206 313.714 216.749 313.375L236.275 300.493C236.818 300.154 237.564 300.29 237.903 300.832C238.242 301.374 238.106 302.12 237.564 302.459L218.037 315.341C217.494 315.68 216.749 315.545 216.41 315.002Z"
            fill="#114A70" />
        <path
            d="M201.426 302.188C204.409 312.155 206.646 327.817 208.07 338.123C208.409 340.563 208.206 349.784 206.511 351.547C205.494 352.632 179.255 355.547 168.339 359.141C166.847 359.615 159.728 362.395 158.304 361.785C156.27 360.904 155.185 351.954 155.66 349.852C161.965 322.664 161.966 342.665 152.745 289.171C150.914 278.458 147.388 268.559 151.05 258.321C152.27 254.931 161.491 245.032 161.491 245.032C161.491 245.032 164.61 248.354 167.796 250.253C170.441 251.812 173.898 254.592 176.136 255.135C186.374 257.508 197.832 290.188 201.426 302.188Z"
            fill="#497EAD" />
        <path
            d="M188.747 374.735C189.628 376.633 190.035 378.735 190.238 380.769C190.509 384.363 190.103 387.956 189.086 391.346C187.594 391.007 186.374 389.651 186.17 388.092C186.848 389.176 186.238 390.804 185.018 391.143C183.797 391.482 182.441 390.329 182.509 389.041C182.17 390.126 180.95 390.939 179.865 390.736C178.712 390.532 177.831 389.448 177.899 388.295C178.373 388.634 178.238 389.448 177.831 389.787C177.356 390.126 176.678 390.058 176.204 389.787C175.729 389.515 175.39 388.973 175.187 388.431C174.848 387.481 174.712 386.464 174.644 385.447C174.305 381.108 174.034 376.701 173.695 372.362C173.627 371.752 173.627 371.141 173.898 370.599C174.441 369.582 175.865 369.446 177.085 369.514L181.763 369.718C182.78 369.785 183.865 369.718 184.814 370.057C186.509 370.87 187.933 373.108 188.747 374.735Z"
            fill="#DBA17B" />
        <path
            d="M171.797 272.898C171.254 282.051 170.712 291.272 170.102 300.425C169.763 305.51 169.491 310.663 170.237 315.68C170.847 319.883 172.136 323.951 173.424 327.952C178.102 342.461 182.78 356.97 187.526 371.48C182.509 371.141 177.424 370.802 172.407 370.463C168.407 354.936 160.677 327.206 159.999 324.697C154.44 307.272 152.473 288.763 154.236 270.592L171.797 272.898Z"
            fill="#497EAD" />
        <path
            d="M148.609 183.74C148.609 165.773 128.879 151.196 104.538 151.196C80.1978 151.196 60.4678 165.773 60.4678 183.74C60.4678 201.707 80.1978 216.285 104.538 216.285C109.149 216.285 113.624 215.742 117.759 214.793L133.693 227.811L133.693 208.148C142.846 202.182 148.609 193.436 148.609 183.74Z"
            fill="#0073E6" />
        <path
            d="M123.184 152.213C123.184 137.636 107.183 125.771 87.3847 125.771C67.5869 125.771 51.5859 137.568 51.5859 152.213C51.5859 166.79 67.5869 178.655 87.3847 178.655C91.1138 178.655 94.775 178.248 98.165 177.435L111.047 188.012L111.047 172.078C118.505 167.129 123.184 160.078 123.184 152.213Z"
            fill="white" />
        <path
            d="M105.894 142.721L67.248 142.721C66.7056 142.721 66.231 142.246 66.231 141.704C66.231 141.161 66.7056 140.687 67.248 140.687L105.894 140.687C106.437 140.687 106.911 141.161 106.911 141.704C106.911 142.246 106.437 142.721 105.894 142.721ZM105.894 150.043L67.248 150.043C66.7056 150.043 66.231 149.568 66.231 149.026C66.231 148.484 66.7056 148.009 67.248 148.009L105.894 148.009C106.437 148.009 106.911 148.484 106.911 149.026C106.911 149.568 106.437 150.043 105.894 150.043ZM105.894 157.433L67.248 157.433C66.7056 157.433 66.231 156.959 66.231 156.416C66.231 155.874 66.7056 155.399 67.248 155.399L105.894 155.399C106.437 155.399 106.911 155.874 106.911 156.416C106.911 156.959 106.437 157.433 105.894 157.433ZM105.894 164.756L67.248 164.756C66.7056 164.756 66.231 164.281 66.231 163.739C66.231 163.196 66.7056 162.722 67.248 162.722L105.894 162.722C106.437 162.722 106.911 163.196 106.911 163.739C106.911 164.281 106.437 164.756 105.894 164.756Z"
            fill="#0073E6" />
    </g>
</svg>