<svg width="94" height="92" viewBox="0 0 94 92" fill="none" xmlns="http://www.w3.org/2000/svg">
<path d="M17.4105 30.5854C17.2022 30.9326 16.6814 35.6715 16.855 35.7235C16.9418 35.7583 17.0112 36.3311 17.0112 36.9907C17.0112 38.0669 16.9765 38.1884 16.6641 38.1884C16.4731 38.1884 16.3169 38.2579 16.3169 38.362C16.3169 38.4488 16.5426 38.5356 16.8203 38.5356C17.1154 38.5356 17.3931 38.4488 17.4452 38.362C17.4973 38.2579 17.4626 38.1884 17.3758 38.1884C17.2543 38.1884 17.1848 37.685 17.1848 36.8866C17.1848 35.9318 17.2369 35.602 17.4105 35.6194C17.5146 35.6541 17.6535 35.9839 17.7229 36.3658L17.8097 37.0601L17.9486 36.5394C18.2784 35.2722 19.3373 33.8141 20.3961 33.1545C21.7675 32.3039 22.3924 32.2345 29.492 32.165C34.9946 32.0956 36.1229 32.1303 36.0014 32.3213C35.8626 32.5817 31.8875 38.1537 30.898 39.4903C30.5509 39.959 29.6482 41.2088 28.9192 42.2677L27.5652 44.1771L24.6837 44.2639C22.3056 44.3507 22.7743 44.3681 27.3048 44.4028L32.8075 44.4375L33.3803 43.639C33.6754 43.1877 35.0641 41.2435 36.4527 39.2994C37.8414 37.3552 39.369 35.2028 39.8376 34.5258C40.3237 33.8488 41.0875 32.7726 41.5388 32.1477C41.9901 31.5228 42.3373 30.8805 42.3199 30.7417C42.2678 30.4986 40.9486 30.4639 29.9086 30.4118C20.1358 30.3771 17.532 30.4118 17.4105 30.5854ZM36.1229 36.9386C36.2271 37.7718 36.1924 37.8413 35.6369 37.8413C35.3244 37.8413 35.2376 37.7545 35.2376 37.4073C35.2376 37.1643 35.3592 36.9213 35.498 36.8692C35.6369 36.7998 35.7584 36.6783 35.7584 36.5915C35.7584 36.47 35.6716 36.4873 35.5327 36.6088C35.2203 36.8518 35.012 36.6435 35.2724 36.3311C35.6369 35.8798 36.0188 36.1575 36.1229 36.9386Z" fill="#0073E6"/>
<path d="M43.3268 30.4986C43.2747 30.5681 43.2227 30.759 43.2227 30.9326C43.2227 31.1756 43.3615 31.245 43.8128 31.245C45.0106 31.245 45.4793 31.4534 46.6944 32.5817L47.9094 33.71L47.9442 39.0737C47.9789 42.0247 48.0483 44.4375 48.1351 44.4375C59.4355 44.4201 74.6415 44.3507 73.4785 44.316L71.8642 44.2466V38.8307C71.8642 34.0224 71.8989 33.3454 72.1766 32.8073C72.5759 31.9915 73.843 31.3666 75.2838 31.2798C76.3079 31.2103 76.3774 31.1756 76.3774 30.7937V30.3771L70.7879 30.4118C65.32 30.4639 65.1811 30.4639 65.1811 30.8111C65.1811 31.1062 65.3374 31.1756 66.3615 31.2798C67.9411 31.436 69 31.9567 69.434 32.8247C69.7638 33.4496 69.7811 33.8662 69.7811 38.8828V44.2639H66.0664C62.3517 44.2639 62.3517 44.2639 62.0913 43.8473C61.9351 43.6217 61.7094 43.3439 61.5879 43.205C61.4664 43.0662 60.4423 41.8164 59.314 40.4277C58.203 39.0217 57.1268 37.8413 56.9359 37.7892C56.7449 37.7371 56.5887 37.5462 56.5887 37.3726C56.5887 37.0949 55.5298 35.6367 53.6898 33.4149C53.4468 33.1198 52.8219 32.3213 52.2838 31.6269L51.2944 30.3598L47.3713 30.3771C45.2015 30.3945 43.3789 30.4466 43.3268 30.4986ZM53.2732 40.4103C54.7661 42.2677 56.0506 43.882 56.12 44.0209C56.2415 44.2292 55.7555 44.2639 53.0302 44.2639H49.8189V40.2194L49.8362 36.1922L50.2008 36.6262C50.3917 36.8692 51.7804 38.5703 53.2732 40.4103Z" fill="#0073E6"/>
<path d="M22.8784 48.5516C24.1629 48.621 24.3539 48.7599 23.8852 49.2807C22.9478 50.3569 15.2754 61.3448 15.2754 61.6226C15.2754 61.9697 15.4316 61.9697 28.7282 61.9697C36.1229 61.9697 42.181 61.9003 42.181 61.8309C42.181 61.6399 43.0316 55.1305 43.1705 54.2799C43.2573 53.655 43.2573 53.6377 42.7539 53.6377C42.3026 53.6377 42.2158 53.7244 42.0248 54.3667C41.3826 56.5018 40.1675 58.3071 38.8135 59.1056C37.3207 59.9735 36.3833 60.0777 28.8671 60.1818C24.1282 60.2512 21.8716 60.2165 21.8716 60.095C21.8716 60.0082 23.6943 57.335 25.9335 54.1758L30.0127 48.4301L25.812 48.4648C23.5033 48.4822 22.1841 48.5343 22.8784 48.5516Z" fill="#0073E6"/>
<path d="M47.9094 53.5506C47.9094 59.1748 47.8574 59.5219 46.9027 60.1989C46.3298 60.6155 44.6634 61.1016 43.7955 61.1016C43.2921 61.1016 43.2227 61.1536 43.2227 61.5355V61.9695L48.8294 61.9348C54.3668 61.8827 54.4189 61.8827 54.471 61.5182C54.523 61.1883 54.4189 61.1363 53.4468 61.0321C52.8566 60.98 51.954 60.737 51.4332 60.494C50.6694 60.1468 50.4438 59.9385 50.1661 59.331C49.8536 58.654 49.8189 58.168 49.8189 53.6721V48.777H54.9049H59.991L61.5706 50.7212C62.4385 51.7974 63.8793 53.5853 64.7645 54.6963C65.6672 55.7899 67.4551 57.9944 68.7396 59.5914C70.5102 61.7785 71.1872 62.4902 71.4823 62.4902H71.8642V55.5468V48.6208L73.6521 48.5514C74.6242 48.534 69.2257 48.4819 61.6747 48.4646L47.9094 48.4299V53.5506ZM69.7811 50.9468C69.7811 52.1446 69.7291 53.1167 69.6596 53.1167C69.5728 53.0993 69.0868 52.5438 68.5487 51.8495C68.0106 51.1551 67.2294 50.1831 66.8302 49.6797L66.1011 48.777H67.9411H69.7811V50.9468Z" fill="#0073E6"/>
<rect x="34.8906" y="36.0625" width="1.69245" height="2.08302" fill="#0073E6"/>
</svg>
