<svg width="90" height="92" viewBox="0 0 90 92" fill="none" xmlns="http://www.w3.org/2000/svg">
    <path
        d="M13.4106 30.5859C13.2023 30.9331 12.6815 35.672 12.8551 35.724C12.9419 35.7587 13.0114 36.3316 13.0114 36.9912C13.0114 38.0674 12.9766 38.1889 12.6642 38.1889C12.4732 38.1889 12.317 38.2584 12.317 38.3625C12.317 38.4493 12.5427 38.5361 12.8204 38.5361C13.1155 38.5361 13.3932 38.4493 13.4453 38.3625C13.4974 38.2584 13.4627 38.1889 13.3759 38.1889C13.2544 38.1889 13.1849 37.6855 13.1849 36.887C13.1849 35.9323 13.237 35.6025 13.4106 35.6199C13.5148 35.6546 13.6536 35.9844 13.7231 36.3663L13.8098 37.0606L13.9487 36.5399C14.2785 35.2727 15.3374 33.8146 16.3963 33.155C17.7676 32.3044 18.3925 32.235 25.4921 32.1655C30.9948 32.0961 32.1231 32.1308 32.0015 32.3218C31.8627 32.5821 27.8876 38.1542 26.8981 39.4908C26.551 39.9595 25.6483 41.2093 24.9193 42.2682L23.5653 44.1776L20.6838 44.2644C18.3057 44.3512 18.7744 44.3686 23.3049 44.4033L28.8076 44.438L29.3804 43.6395C29.6755 43.1882 31.0642 41.244 32.4529 39.2999C33.8415 37.3557 35.3691 35.2033 35.8378 34.5263C36.3238 33.8493 37.0876 32.7731 37.5389 32.1482C37.9902 31.5233 38.3374 30.881 38.32 30.7421C38.268 30.4991 36.9487 30.4644 25.9087 30.4123C16.1359 30.3776 13.5321 30.4123 13.4106 30.5859ZM32.1231 36.9391C32.2272 37.7723 32.1925 37.8418 31.637 37.8418C31.3246 37.8418 31.2378 37.755 31.2378 37.4078C31.2378 37.1648 31.3593 36.9218 31.4981 36.8697C31.637 36.8003 31.7585 36.6787 31.7585 36.592C31.7585 36.4704 31.6717 36.4878 31.5329 36.6093C31.2204 36.8523 31.0121 36.644 31.2725 36.3316C31.637 35.8803 32.0189 36.158 32.1231 36.9391Z"
        fill="white" />
    <path
        d="M39.3268 30.4991C39.2747 30.5686 39.2227 30.7595 39.2227 30.9331C39.2227 31.1761 39.3615 31.2455 39.8128 31.2455C41.0106 31.2455 41.4793 31.4538 42.6944 32.5821L43.9094 33.7104L43.9442 39.0742C43.9789 42.0252 44.0483 44.438 44.1351 44.438C55.4355 44.4206 70.6415 44.3512 69.4785 44.3165L67.8642 44.247V38.8312C67.8642 34.0229 67.8989 33.3459 68.1766 32.8078C68.5759 31.992 69.843 31.367 71.2838 31.2803C72.3079 31.2108 72.3774 31.1761 72.3774 30.7942V30.3776L66.7879 30.4123C61.32 30.4644 61.1811 30.4644 61.1811 30.8116C61.1811 31.1067 61.3374 31.1761 62.3615 31.2803C63.9411 31.4365 65 31.9572 65.434 32.8252C65.7638 33.4501 65.7811 33.8667 65.7811 38.8833V44.2644H62.0664C58.3517 44.2644 58.3517 44.2644 58.0913 43.8478C57.9351 43.6221 57.7094 43.3444 57.5879 43.2055C57.4664 43.0667 56.4423 41.8169 55.314 40.4282C54.203 39.0221 53.1268 37.8418 52.9359 37.7897C52.7449 37.7376 52.5887 37.5467 52.5887 37.3731C52.5887 37.0953 51.5298 35.6372 49.6898 33.4153C49.4468 33.1203 48.8219 32.3218 48.2838 31.6274L47.2944 30.3603L43.3713 30.3776C41.2015 30.395 39.3789 30.447 39.3268 30.4991ZM49.2732 40.4108C50.7661 42.2682 52.0506 43.8825 52.12 44.0214C52.2415 44.2297 51.7555 44.2644 49.0302 44.2644H45.8189V40.2199L45.8362 36.1927L46.2008 36.6267C46.3917 36.8697 47.7804 38.5708 49.2732 40.4108Z"
        fill="white" />
    <path
        d="M18.8785 48.5516C20.1631 48.621 20.354 48.7599 19.8853 49.2807C18.948 50.3569 11.2755 61.3448 11.2755 61.6226C11.2755 61.9697 11.4317 61.9697 24.7283 61.9697C32.1231 61.9697 38.1812 61.9003 38.1812 61.8309C38.1812 61.6399 39.0317 55.1305 39.1706 54.2799C39.2574 53.655 39.2574 53.6377 38.754 53.6377C38.3027 53.6377 38.2159 53.7244 38.0249 54.3667C37.3827 56.5018 36.1676 58.3071 34.8136 59.1056C33.3208 59.9735 32.3834 60.0777 24.8672 60.1818C20.1283 60.2512 17.8717 60.2165 17.8717 60.095C17.8717 60.0082 19.6944 57.335 21.9336 54.1758L26.0129 48.4301L21.8121 48.4648C19.5034 48.4822 18.1842 48.5343 18.8785 48.5516Z"
        fill="white" />
    <path
        d="M43.9094 53.5511C43.9094 59.1753 43.8574 59.5224 42.9027 60.1994C42.3298 60.616 40.6634 61.102 39.7955 61.102C39.2921 61.102 39.2227 61.1541 39.2227 61.536V61.97L44.8294 61.9353C50.3668 61.8832 50.4189 61.8832 50.471 61.5186C50.523 61.1888 50.4189 61.1368 49.4468 61.0326C48.8566 60.9805 47.954 60.7375 47.4332 60.4945C46.6694 60.1473 46.4438 59.939 46.1661 59.3315C45.8536 58.6545 45.8189 58.1685 45.8189 53.6726V48.7775H50.9049H55.991L57.5706 50.7217C58.4385 51.7979 59.8793 53.5858 60.7645 54.6968C61.6672 55.7903 63.4551 57.9949 64.7396 59.5919C66.5102 61.779 67.1872 62.4907 67.4823 62.4907H67.8642V55.5473V48.6213L69.6521 48.5519C70.6242 48.5345 65.2257 48.4824 57.6747 48.4651L43.9094 48.4303V53.5511ZM65.7811 50.9473C65.7811 52.1451 65.7291 53.1171 65.6596 53.1171C65.5728 53.0998 65.0868 52.5443 64.5487 51.85C64.0106 51.1556 63.2294 50.1836 62.8302 49.6802L62.1011 48.7775H63.9411H65.7811V50.9473Z"
        fill="white" />
    <rect x="30.8906" y="36.0625" width="1.69245" height="2.08302" fill="#0073E6" />
</svg>