<svg width="90" height="92" viewBox="0 0 90 92" fill="none" xmlns="http://www.w3.org/2000/svg">
    <path
        d="M13.4105 30.5854C13.2022 30.9326 12.6814 35.6715 12.855 35.7235C12.9418 35.7583 13.0112 36.3311 13.0112 36.9907C13.0112 38.0669 12.9765 38.1884 12.6641 38.1884C12.4731 38.1884 12.3169 38.2579 12.3169 38.362C12.3169 38.4488 12.5426 38.5356 12.8203 38.5356C13.1154 38.5356 13.3931 38.4488 13.4452 38.362C13.4973 38.2579 13.4626 38.1884 13.3758 38.1884C13.2543 38.1884 13.1848 37.685 13.1848 36.8866C13.1848 35.9318 13.2369 35.602 13.4105 35.6194C13.5146 35.6541 13.6535 35.9839 13.7229 36.3658L13.8097 37.0601L13.9486 36.5394C14.2784 35.2722 15.3373 33.8141 16.3961 33.1545C17.7675 32.3039 18.3924 32.2345 25.492 32.165C30.9946 32.0956 32.1229 32.1303 32.0014 32.3213C31.8626 32.5817 27.8875 38.1537 26.898 39.4903C26.5509 39.959 25.6482 41.2088 24.9192 42.2677L23.5652 44.1771L20.6837 44.2639C18.3056 44.3507 18.7743 44.3681 23.3048 44.4028L28.8075 44.4375L29.3803 43.639C29.6754 43.1877 31.0641 41.2435 32.4527 39.2994C33.8414 37.3552 35.369 35.2028 35.8376 34.5258C36.3237 33.8488 37.0875 32.7726 37.5388 32.1477C37.9901 31.5228 38.3373 30.8805 38.3199 30.7417C38.2678 30.4986 36.9486 30.4639 25.9086 30.4118C16.1358 30.3771 13.532 30.4118 13.4105 30.5854ZM32.1229 36.9386C32.2271 37.7718 32.1924 37.8413 31.6369 37.8413C31.3244 37.8413 31.2376 37.7545 31.2376 37.4073C31.2376 37.1643 31.3592 36.9213 31.498 36.8692C31.6369 36.7998 31.7584 36.6783 31.7584 36.5915C31.7584 36.47 31.6716 36.4873 31.5327 36.6088C31.2203 36.8518 31.012 36.6435 31.2724 36.3311C31.6369 35.8798 32.0188 36.1575 32.1229 36.9386Z"
        fill="white" />
    <path
        d="M39.3268 30.4986C39.2747 30.5681 39.2227 30.759 39.2227 30.9326C39.2227 31.1756 39.3615 31.245 39.8128 31.245C41.0106 31.245 41.4793 31.4534 42.6944 32.5817L43.9094 33.71L43.9442 39.0737C43.9789 42.0247 44.0483 44.4375 44.1351 44.4375C55.4355 44.4201 70.6415 44.3507 69.4785 44.316L67.8642 44.2466V38.8307C67.8642 34.0224 67.8989 33.3454 68.1766 32.8073C68.5759 31.9915 69.843 31.3666 71.2838 31.2798C72.3079 31.2103 72.3774 31.1756 72.3774 30.7937V30.3771L66.7879 30.4118C61.32 30.4639 61.1811 30.4639 61.1811 30.8111C61.1811 31.1062 61.3374 31.1756 62.3615 31.2798C63.9411 31.436 65 31.9567 65.434 32.8247C65.7638 33.4496 65.7811 33.8662 65.7811 38.8828V44.2639H62.0664C58.3517 44.2639 58.3517 44.2639 58.0913 43.8473C57.9351 43.6217 57.7094 43.3439 57.5879 43.205C57.4664 43.0662 56.4423 41.8164 55.314 40.4277C54.203 39.0217 53.1268 37.8413 52.9359 37.7892C52.7449 37.7371 52.5887 37.5462 52.5887 37.3726C52.5887 37.0949 51.5298 35.6367 49.6898 33.4149C49.4468 33.1198 48.8219 32.3213 48.2838 31.6269L47.2944 30.3598L43.3713 30.3771C41.2015 30.3945 39.3789 30.4466 39.3268 30.4986ZM49.2732 40.4103C50.7661 42.2677 52.0506 43.882 52.12 44.0209C52.2415 44.2292 51.7555 44.2639 49.0302 44.2639H45.8189V40.2194L45.8362 36.1922L46.2008 36.6262C46.3917 36.8692 47.7804 38.5703 49.2732 40.4103Z"
        fill="white" />
    <path
        d="M18.8784 48.5516C20.1629 48.621 20.3539 48.7599 19.8852 49.2807C18.9478 50.3569 11.2754 61.3448 11.2754 61.6226C11.2754 61.9697 11.4316 61.9697 24.7282 61.9697C32.1229 61.9697 38.181 61.9003 38.181 61.8309C38.181 61.6399 39.0316 55.1305 39.1705 54.2799C39.2573 53.655 39.2573 53.6377 38.7539 53.6377C38.3026 53.6377 38.2158 53.7244 38.0248 54.3667C37.3826 56.5018 36.1675 58.3071 34.8135 59.1056C33.3207 59.9735 32.3833 60.0777 24.8671 60.1818C20.1282 60.2512 17.8716 60.2165 17.8716 60.095C17.8716 60.0082 19.6943 57.335 21.9335 54.1758L26.0127 48.4301L21.812 48.4648C19.5033 48.4822 18.1841 48.5343 18.8784 48.5516Z"
        fill="white" />
    <path
        d="M43.9094 53.5506C43.9094 59.1748 43.8574 59.5219 42.9027 60.1989C42.3298 60.6155 40.6634 61.1016 39.7955 61.1016C39.2921 61.1016 39.2227 61.1536 39.2227 61.5355V61.9695L44.8294 61.9348C50.3668 61.8827 50.4189 61.8827 50.471 61.5182C50.523 61.1883 50.4189 61.1363 49.4468 61.0321C48.8566 60.98 47.954 60.737 47.4332 60.494C46.6694 60.1468 46.4438 59.9385 46.1661 59.331C45.8536 58.654 45.8189 58.168 45.8189 53.6721V48.777H50.9049H55.991L57.5706 50.7212C58.4385 51.7974 59.8793 53.5853 60.7645 54.6963C61.6672 55.7899 63.4551 57.9944 64.7396 59.5914C66.5102 61.7785 67.1872 62.4902 67.4823 62.4902H67.8642V55.5468V48.6208L69.6521 48.5514C70.6242 48.534 65.2257 48.4819 57.6747 48.4646L43.9094 48.4299V53.5506ZM65.7811 50.9468C65.7811 52.1446 65.7291 53.1167 65.6596 53.1167C65.5728 53.0993 65.0868 52.5438 64.5487 51.8495C64.0106 51.1551 63.2294 50.1831 62.8302 49.6797L62.1011 48.777H63.9411H65.7811V50.9468Z"
        fill="white" />
    <rect x="30.8906" y="36.0625" width="1.69245" height="2.08302" fill="#0073E6" />
</svg>