<svg width="23" height="23" viewBox="0 0 23 23" fill="none" xmlns="http://www.w3.org/2000/svg">
<g id="Phone">
<path id="Vector" d="M19.6276 14.8414L18.0464 13.2601C17.575 12.7926 16.9388 12.529 16.2749 12.5261C15.6109 12.5233 14.9725 12.7815 14.4972 13.245C14.2436 13.5001 13.909 13.6588 13.551 13.6938C13.193 13.7289 12.834 13.638 12.5357 13.437C11.3585 12.6513 10.3473 11.642 9.55937 10.4664C9.36183 10.1648 9.27428 9.80434 9.31146 9.44574C9.34864 9.08715 9.50829 8.75234 9.7635 8.4977C10.2228 8.02194 10.4777 7.38527 10.4735 6.72396C10.4694 6.06265 10.2065 5.42924 9.74122 4.9593L8.15997 3.37805C7.68656 2.90627 7.04546 2.64136 6.37711 2.64136C5.70876 2.64136 5.06765 2.90627 4.59425 3.37805L4.13928 3.83374C1.7674 6.20561 1.94493 11.1923 6.87987 16.1244C9.8555 19.1007 12.8505 20.347 15.2792 20.347C15.9941 20.3708 16.7066 20.2521 17.3752 19.9978C18.0438 19.7435 18.655 19.3586 19.1734 18.8657L19.6291 18.41C20.1017 17.9364 20.367 17.2945 20.3668 16.6254C20.3665 15.9563 20.1006 15.3146 19.6276 14.8414ZM18.6113 17.3937L18.1556 17.8494C16.2869 19.7181 12.162 19.3767 7.89475 15.1088C3.62753 10.8408 3.2854 6.71305 5.15415 4.8443L5.60625 4.38933C5.8098 4.18651 6.08544 4.07263 6.37279 4.07263C6.66014 4.07263 6.93578 4.18651 7.13934 4.38933L8.72059 5.97058C8.92045 6.17144 9.03389 6.44245 9.03671 6.72579C9.03953 7.00913 8.9315 7.28234 8.73568 7.48714C8.25001 7.97591 7.94705 8.61674 7.87757 9.30227C7.80809 9.9878 7.9763 10.6764 8.35403 11.2527C9.24926 12.5924 10.4005 13.7419 11.7415 14.6351C12.3161 15.0129 13.0028 15.1821 13.6871 15.1145C14.3714 15.0468 15.0118 14.7465 15.5013 14.2635C15.7057 14.0654 15.9797 13.9554 16.2643 13.9571C16.549 13.9588 16.8216 14.0722 17.0236 14.2729L18.6048 15.8541C18.7068 15.9545 18.7878 16.0741 18.8433 16.206C18.8988 16.3379 18.9277 16.4795 18.9283 16.6225C18.9289 16.7656 18.9012 16.9074 18.8468 17.0398C18.7924 17.1721 18.7124 17.2924 18.6113 17.3937Z" fill="white"/>
</g>
</svg>
