<svg width="154" height="150" viewBox="0 0 154 150" fill="none" xmlns="http://www.w3.org/2000/svg">
    <g opacity="0.85">
        <path
            d="M112.272 51.2153L90.9477 51.2153C89.7448 51.2153 88.7606 50.2311 88.7606 49.0281L88.7606 35.1764C88.7606 33.9735 89.7448 32.9893 90.9477 32.9893L112.272 32.9893C113.475 32.9893 114.459 33.9735 114.459 35.1764L114.459 49.0281C114.459 50.2311 113.475 51.2153 112.272 51.2153Z"
            fill="white" />
        <path
            d="M87.5942 35.5588L87.5942 49.2465C87.5942 51.142 89.1252 52.673 91.0207 52.673L111.543 52.673C113.439 52.673 114.97 51.142 114.97 49.2465L114.97 35.5588C114.97 33.6633 113.439 32.1323 111.543 32.1323L91.0207 32.1323C89.1252 32.1323 87.5942 33.6633 87.5942 35.5588ZM89.3804 49.5928C89.3622 49.4835 89.3075 49.3741 89.3075 49.2648L89.3075 35.577C89.3075 35.3948 89.3622 35.2307 89.4168 35.0849L96.6526 41.3L89.3804 49.5928ZM111.543 33.8456C111.653 33.8456 111.762 33.882 111.871 33.9185L101.282 42.995L90.6927 33.9185C90.802 33.9002 90.8931 33.8456 91.0207 33.8456L111.543 33.8456ZM105.911 41.2636L113.147 35.0485C113.202 35.2125 113.256 35.3766 113.256 35.5406L113.256 49.2283C113.256 49.3559 113.22 49.447 113.184 49.5564L105.911 41.2636ZM91.0207 50.9598C90.8385 50.9598 90.6927 50.9051 90.5286 50.8687L97.9466 42.3936L100.717 44.7812C100.881 44.927 101.081 44.9817 101.282 44.9817C101.482 44.9817 101.683 44.9088 101.847 44.7812L104.617 42.3936L112.035 50.8687C111.871 50.9233 111.725 50.9598 111.543 50.9598L91.0207 50.9598Z"
            fill="#0073E6" />
        <path
            d="M122.661 90.4011L106.622 90.4011C105.419 90.4011 104.435 89.4169 104.435 88.214L104.435 78.1168C104.435 76.9139 105.419 75.9297 106.622 75.9297L122.661 75.9297C123.864 75.9297 124.848 76.9139 124.848 78.1168L124.848 88.214C124.848 89.4169 123.864 90.4011 122.661 90.4011Z"
            fill="white" />
        <path
            d="M103.852 77.8797L103.852 88.706C103.852 90.2005 105.055 91.4217 106.567 91.4217L122.807 91.4217C124.301 91.4217 125.523 90.2187 125.523 88.706L125.523 77.8797C125.523 76.3852 124.32 75.1641 122.807 75.1641L106.567 75.1641C105.073 75.1823 103.852 76.3852 103.852 77.8797ZM105.255 88.9794C105.237 88.8882 105.201 88.8153 105.201 88.706L105.201 77.8797C105.201 77.7339 105.237 77.6063 105.273 77.4788L110.996 82.3816L105.255 88.9794ZM122.807 76.531C122.898 76.531 122.971 76.5675 123.062 76.5857L114.696 83.7667L106.331 76.5857C106.422 76.5675 106.495 76.531 106.586 76.531L122.807 76.531ZM118.341 82.3998L124.064 77.497C124.101 77.6246 124.137 77.7522 124.137 77.898L124.137 88.7242C124.137 88.8153 124.101 88.9065 124.083 88.9976L118.341 82.3998ZM106.567 90.0547C106.422 90.0547 106.312 90.0183 106.185 89.9818L112.054 83.2746L114.259 85.1519C114.386 85.2613 114.55 85.3159 114.696 85.3159C114.86 85.3159 115.006 85.2613 115.134 85.1519L117.339 83.2746L123.208 89.9818C123.08 90.0183 122.953 90.0547 122.825 90.0547L106.567 90.0547Z"
            fill="#497EAD" />
        <path
            d="M133.597 71.0812L127.035 71.0812C125.832 71.0812 124.848 70.097 124.848 68.8941L124.848 64.9938C124.848 63.7908 125.832 62.8066 127.035 62.8066L133.597 62.8066C134.799 62.8066 135.784 63.7908 135.784 64.9938L135.784 68.8941C135.784 70.097 134.799 71.0812 133.597 71.0812Z"
            fill="white" />
        <path
            d="M124.575 64.0823L124.575 69.7688C124.575 70.5525 125.213 71.1904 125.996 71.1904L134.526 71.1904C135.31 71.1904 135.948 70.5525 135.948 69.7688L135.948 64.0823C135.948 63.2986 135.31 62.6606 134.526 62.6606L125.996 62.6606C125.213 62.6789 124.575 63.2986 124.575 64.0823ZM125.322 69.9146C125.304 69.8599 125.286 69.8235 125.286 69.7688L125.286 64.0823C125.286 64.0094 125.304 63.9365 125.322 63.8818L128.329 66.4517L125.322 69.9146ZM134.526 63.3897C134.581 63.3897 134.617 63.4079 134.654 63.4079L130.261 67.1807L125.869 63.4079C125.905 63.4079 125.96 63.3897 125.996 63.3897L134.526 63.3897ZM132.175 66.4517L135.182 63.8818C135.201 63.9547 135.219 64.0094 135.219 64.0823L135.219 69.7688C135.219 69.8235 135.201 69.8599 135.182 69.9146L132.175 66.4517ZM125.996 70.4796C125.924 70.4796 125.851 70.4614 125.796 70.4432L128.876 66.9255L130.024 67.9097C130.097 67.9644 130.17 68.0009 130.261 68.0009C130.352 68.0009 130.425 67.9644 130.498 67.9097L131.647 66.9255L134.727 70.4432C134.654 70.4614 134.599 70.4796 134.526 70.4796L125.996 70.4796Z"
            fill="#0073E6" />
        <path
            d="M96.8164 54.368C97.1184 54.368 97.3632 54.1232 97.3632 53.8212C97.3632 53.5192 97.1184 53.2744 96.8164 53.2744C96.5145 53.2744 96.2697 53.5192 96.2697 53.8212C96.2697 54.1232 96.5145 54.368 96.8164 54.368Z"
            fill="#6B6B6B" />
        <path
            d="M95.0851 55.2981C95.3871 55.2981 95.6319 55.0533 95.6319 54.7514C95.6319 54.4494 95.3871 54.2046 95.0851 54.2046C94.7831 54.2046 94.5383 54.4494 94.5383 54.7514C94.5383 55.0533 94.7831 55.2981 95.0851 55.2981Z"
            fill="#6B6B6B" />
        <path
            d="M93.39 56.282C93.692 56.282 93.9368 56.0372 93.9368 55.7353C93.9368 55.4333 93.692 55.1885 93.39 55.1885C93.0881 55.1885 92.8433 55.4333 92.8433 55.7353C92.8433 56.0372 93.0881 56.282 93.39 56.282Z"
            fill="#6B6B6B" />
        <path
            d="M92.0231 57.6854C92.3251 57.6854 92.5699 57.4406 92.5699 57.1386C92.5699 56.8366 92.3251 56.5918 92.0231 56.5918C91.7211 56.5918 91.4763 56.8366 91.4763 57.1386C91.4763 57.4406 91.7211 57.6854 92.0231 57.6854Z"
            fill="#6B6B6B" />
        <path
            d="M90.8566 59.2523C91.1586 59.2523 91.4034 59.0074 91.4034 58.7055C91.4034 58.4035 91.1586 58.1587 90.8566 58.1587C90.5546 58.1587 90.3098 58.4035 90.3098 58.7055C90.3098 59.0074 90.5546 59.2523 90.8566 59.2523Z"
            fill="#6B6B6B" />
        <path
            d="M89.9635 61.0027C90.2655 61.0027 90.5103 60.7579 90.5103 60.456C90.5103 60.154 90.2655 59.9092 89.9635 59.9092C89.6615 59.9092 89.4167 60.154 89.4167 60.456C89.4167 60.7579 89.6615 61.0027 89.9635 61.0027Z"
            fill="#6B6B6B" />
        <path
            d="M89.3986 62.8797C89.7006 62.8797 89.9454 62.6349 89.9454 62.3329C89.9454 62.0309 89.7006 61.7861 89.3986 61.7861C89.0966 61.7861 88.8518 62.0309 88.8518 62.3329C88.8518 62.6349 89.0966 62.8797 89.3986 62.8797Z"
            fill="#6B6B6B" />
        <path
            d="M99.8239 70.6258C100.126 70.6258 100.371 70.381 100.371 70.079C100.371 69.777 100.126 69.5322 99.8239 69.5322C99.5219 69.5322 99.2771 69.777 99.2771 70.079C99.2771 70.381 99.5219 70.6258 99.8239 70.6258Z"
            fill="#6B6B6B" />
        <path
            d="M97.8555 70.6258C98.1575 70.6258 98.4023 70.381 98.4023 70.079C98.4023 69.777 98.1575 69.5322 97.8555 69.5322C97.5535 69.5322 97.3087 69.777 97.3087 70.079C97.3087 70.381 97.5535 70.6258 97.8555 70.6258Z"
            fill="#6B6B6B" />
        <path
            d="M95.887 70.6258C96.189 70.6258 96.4338 70.381 96.4338 70.079C96.4338 69.777 96.189 69.5322 95.887 69.5322C95.585 69.5322 95.3402 69.777 95.3402 70.079C95.3402 70.381 95.585 70.6258 95.887 70.6258Z"
            fill="#6B6B6B" />
        <path
            d="M93.9186 70.6258C94.2206 70.6258 94.4654 70.381 94.4654 70.079C94.4654 69.777 94.2206 69.5322 93.9186 69.5322C93.6166 69.5322 93.3718 69.777 93.3718 70.079C93.3718 70.381 93.6166 70.6258 93.9186 70.6258Z"
            fill="#6B6B6B" />
        <path
            d="M91.9502 70.6258C92.2522 70.6258 92.497 70.381 92.497 70.079C92.497 69.777 92.2522 69.5322 91.9502 69.5322C91.6482 69.5322 91.4034 69.777 91.4034 70.079C91.4034 70.381 91.6482 70.6258 91.9502 70.6258Z"
            fill="#6B6B6B" />
        <path
            d="M122.606 67.4544C122.908 67.4544 123.153 67.2096 123.153 66.9076C123.153 66.6056 122.908 66.3608 122.606 66.3608C122.304 66.3608 122.06 66.6056 122.06 66.9076C122.06 67.2096 122.304 67.4544 122.606 67.4544Z"
            fill="#6B6B6B" />
        <path
            d="M120.638 67.3997C120.94 67.3997 121.185 67.1549 121.185 66.8529C121.185 66.551 120.94 66.3062 120.638 66.3062C120.336 66.3062 120.091 66.551 120.091 66.8529C120.091 67.1549 120.336 67.3997 120.638 67.3997Z"
            fill="#6B6B6B" />
        <path
            d="M118.669 67.3455C118.971 67.3455 119.216 67.1007 119.216 66.7987C119.216 66.4968 118.971 66.252 118.669 66.252C118.367 66.252 118.123 66.4968 118.123 66.7987C118.123 67.1007 118.367 67.3455 118.669 67.3455Z"
            fill="#6B6B6B" />
        <path
            d="M116.756 67.8187C117.058 67.8187 117.303 67.5739 117.303 67.2719C117.303 66.9699 117.058 66.7251 116.756 66.7251C116.454 66.7251 116.209 66.9699 116.209 67.2719C116.209 67.5739 116.454 67.8187 116.756 67.8187Z"
            fill="#6B6B6B" />
        <path
            d="M114.86 68.3475C115.162 68.3475 115.407 68.1027 115.407 67.8007C115.407 67.4987 115.162 67.2539 114.86 67.2539C114.558 67.2539 114.314 67.4987 114.314 67.8007C114.314 68.1027 114.558 68.3475 114.86 68.3475Z"
            fill="#6B6B6B" />
        <path
            d="M113.238 69.4407C113.54 69.4407 113.785 69.1959 113.785 68.8939C113.785 68.592 113.54 68.3472 113.238 68.3472C112.936 68.3472 112.691 68.592 112.691 68.8939C112.691 69.1959 112.936 69.4407 113.238 69.4407Z"
            fill="#6B6B6B" />
        <path
            d="M111.762 70.7166C112.064 70.7166 112.309 70.4718 112.309 70.1698C112.309 69.8678 112.064 69.623 111.762 69.623C111.46 69.623 111.215 69.8678 111.215 70.1698C111.215 70.4718 111.46 70.7166 111.762 70.7166Z"
            fill="#6B6B6B" />
        <path
            d="M110.577 72.2845C110.879 72.2845 111.124 72.0397 111.124 71.7377C111.124 71.4357 110.879 71.1909 110.577 71.1909C110.275 71.1909 110.03 71.4357 110.03 71.7377C110.03 72.0397 110.275 72.2845 110.577 72.2845Z"
            fill="#6B6B6B" />
        <path
            d="M109.739 74.0521C110.041 74.0521 110.286 73.8073 110.286 73.5053C110.286 73.2033 110.041 72.9585 109.739 72.9585C109.437 72.9585 109.192 73.2033 109.192 73.5053C109.192 73.8073 109.437 74.0521 109.739 74.0521Z"
            fill="#6B6B6B" />
        <path
            d="M72.1385 127.946C72.2843 127.891 72.4119 127.855 72.5577 127.8C72.5577 127.8 72.5031 127.691 72.4119 127.472C70.9174 124.374 58.4873 99.878 34.5201 95.1757C34.3378 95.1392 34.1373 95.1028 33.9551 95.0663C30.9113 94.5195 27.7035 94.2826 24.3135 94.4466C24.3135 94.4466 19.5565 94.5378 13.706 98.6568C13.5784 98.748 13.4508 98.8391 13.305 98.9302C10.6804 100.844 7.85542 103.596 5.13974 107.496L4.97571 107.715C4.97571 107.715 5.01216 107.825 5.10329 108.025C5.94169 109.957 10.8263 120.255 22.3815 127.017C22.5273 127.108 22.6914 127.199 22.8372 127.272C33.3171 133.268 49.1191 136.294 72.1385 127.946Z"
            fill="#114A70" />
        <path
            d="M72.503 128.056L72.5577 127.801L72.6124 127.545L72.4119 127.491L5.13974 107.533L4.97571 107.752C4.97571 107.752 5.01216 107.861 5.10329 108.062L72.1385 127.946L72.503 128.056Z"
            fill="white" />
        <path
            d="M22.8554 127.327L32.8979 116.063L32.5699 115.662L22.3997 127.072C22.5456 127.163 22.6914 127.236 22.8554 127.327ZM45.1822 119.69L45.7473 119.763L34.52 95.1943C34.3378 95.1579 34.1373 95.1214 33.955 95.085L45.1822 119.69ZM19.9939 112.4L20.3949 112.144L13.6877 98.6755C13.5601 98.7666 13.4326 98.8577 13.2867 98.9489L19.9939 112.4Z"
            fill="white" />
        <path
            d="M71.1908 126.871L71.4095 127.035C71.4095 127.035 71.446 126.962 71.5371 126.853C72.7035 125.012 81.6343 110.03 76.0389 95.5771C76.0025 95.4677 75.9478 95.3402 75.9113 95.2308C75.1823 93.4082 74.2163 91.6038 72.9769 89.8359C72.9769 89.8359 71.3184 87.3207 67.1264 85.571C67.0353 85.5346 66.9441 85.4981 66.8348 85.4617C64.921 84.6962 62.4788 84.1129 59.4715 83.9854L59.2892 83.9854C59.2892 83.9854 59.2528 84.04 59.1616 84.1676C58.4144 85.2612 54.5322 91.3669 54.8238 99.8784C54.8238 99.9878 54.8238 100.097 54.8421 100.206C55.1884 107.843 58.9247 117.339 71.1908 126.871Z"
            fill="#497EAD" />
        <path
            d="M71.2637 127.108L71.4277 127.053L71.5918 126.998L71.5553 126.871L59.4715 84.0215L59.2892 84.0215C59.2892 84.0215 59.2528 84.0762 59.1616 84.2037L71.1908 126.907L71.2637 127.108Z"
            fill="white" />
        <path
            d="M54.8421 100.206L64.2832 101.792L64.3743 101.482L54.8057 99.878C54.8239 99.9874 54.8239 100.097 54.8421 100.206ZM66.5068 109.611L66.6526 109.939L76.039 95.5949C76.0025 95.4856 75.9478 95.358 75.9114 95.2486L66.5068 109.611ZM61.8774 93.6265L62.1507 93.7541L67.1082 85.5888C67.0171 85.5524 66.926 85.5159 66.8166 85.4795L61.8774 93.6265Z"
            fill="white" />
        <path
            d="M71.3366 127.856C71.4642 127.874 71.5917 127.874 71.7011 127.892L71.7011 127.619C71.7011 124.921 71.1361 103.396 54.5869 91.8774C54.4593 91.7862 54.3317 91.6951 54.1859 91.604C52.0717 90.1824 49.7023 88.9065 47.0595 87.8677C47.0595 87.8677 43.3961 86.3002 37.4544 87.2115C37.3269 87.2297 37.1811 87.248 37.0535 87.2662C34.356 87.7218 31.2029 88.6878 27.7218 90.5104C27.6489 90.5469 27.5942 90.5833 27.5213 90.6198C27.5213 90.6198 27.5213 90.7109 27.503 90.8932C27.4301 92.5335 27.4119 101.464 33.7728 110.194C33.8639 110.304 33.9368 110.413 34.028 110.541C39.8238 118.305 50.7776 125.851 71.3366 127.856Z"
            fill="#0073E6" />
        <path
            d="M71.5735 128.056L71.7011 127.892L71.8287 127.728L71.7011 127.618L27.7218 90.5103C27.6489 90.5467 27.5942 90.5832 27.5213 90.6196C27.5213 90.6196 27.5213 90.7107 27.5031 90.893L71.3184 127.855L71.5735 128.056Z"
            fill="white" />
        <path
            d="M34.028 110.523L45.7655 106.021L45.6562 105.62L33.7728 110.176C33.864 110.304 33.9369 110.413 34.028 110.523ZM53.8214 112.783L54.2224 113.038L54.6051 91.8592C54.4776 91.7681 54.35 91.677 54.2042 91.5858L53.8214 112.783ZM37.2722 99.022L37.6732 98.9856L37.4545 87.1934C37.3269 87.2116 37.1811 87.2298 37.0535 87.248L37.2722 99.022Z"
            fill="white" />
        <path
            d="M81.9623 128.912L81.2879 134.198L79.0097 135.018L79.6111 128.675L81.9623 128.912ZM71.5735 128.912L70.8991 134.198L68.6208 135.018L69.2223 128.675L71.5735 128.912Z"
            fill="#DBA17B" />
        <path d="M74.5262 63.5176L70.9357 68.0923L74.3622 69.9514L78.2078 65.1944L74.5262 63.5176Z" fill="#CC9271" />
        <path
            d="M83.7303 63.8453C83.6209 63.1527 83.548 62.4419 83.4933 61.7311C83.4569 61.1661 83.4751 60.6011 83.4933 60.036C83.548 59.471 83.548 58.906 83.5116 58.3775C83.5116 58.3957 83.4933 58.4139 83.4933 58.4322C83.4569 57.9583 83.384 57.4844 83.2564 57.0288C82.8919 55.8805 82.1446 54.8052 80.9781 54.4042C78.6452 53.6205 75.802 55.8076 74.6173 59.307C73.4326 62.8064 74.3621 66.2876 76.695 67.0713C78.3536 67.6363 80.2673 66.6885 81.6525 64.8477C82.1993 64.8295 82.7461 64.793 83.2746 64.6472C83.4569 64.5925 83.6391 64.5196 83.7303 64.3556C83.7849 64.1916 83.7667 64.0093 83.7303 63.8453Z"
            fill="#DBA17B" />
        <path
            d="M85.6622 58.0862C86.4095 57.831 87.0474 57.1931 87.1932 56.4276C87.339 55.6439 86.9016 54.769 86.1543 54.5139C85.5893 54.3134 84.915 54.4774 84.4047 54.1858C84.0948 54.0035 83.8943 53.6937 83.6756 53.4203C82.4727 51.8893 80.4861 51.0145 78.5541 51.1603C76.6221 51.3061 74.7813 52.4543 73.8153 54.1311C72.9952 55.5528 72.7947 57.2478 72.9405 58.8699C73.0863 60.492 73.5784 62.0777 74.0523 63.6269C74.8542 62.0412 75.6562 60.4555 76.4581 58.8881C76.6404 58.5418 76.8226 58.1773 77.1507 57.9768C77.4788 57.7763 77.9891 57.7946 78.1714 58.1226C78.2989 58.3413 78.2625 58.6147 78.2625 58.8517C78.2625 59.1068 78.2989 59.3984 78.5176 59.5078C78.7546 59.6354 79.0644 59.4896 79.2831 59.3255C79.757 58.9792 80.1762 58.56 80.559 58.1044C80.7959 57.8128 81.0328 57.4483 81.3791 57.3024C81.7619 57.1384 82.0899 57.3207 82.4362 57.5212C82.9101 57.7946 83.4022 58.0497 83.949 58.1591C84.514 58.2684 85.1155 58.2684 85.6622 58.0862ZM83.2564 91.2393C83.9672 95.7958 84.6416 103.724 85.3524 108.281C86.3913 114.97 83.0924 124.976 81.8712 131.628C80.9782 131.519 80.1944 131.245 79.3014 131.136C79.593 119.854 79.0827 105.474 78.3536 94.2101C79.9393 94.4106 81.6707 91.0388 83.2564 91.2393Z"
            fill="#114A70" />
        <path
            d="M72.1932 94.4108C73.1227 94.4655 74.034 93.6271 74.9635 93.7C76.0935 93.7729 77.3147 93.9916 78.39 94.3196C79.4653 94.6477 80.7229 93.6453 81.78 93.2808C81.9988 95.1034 81.616 98.3476 81.2697 100.152C80.4678 104.38 79.5382 108.572 78.4629 112.728C77.8797 115.024 76.1482 117.23 75.2369 119.417C74.8542 120.346 74.4896 121.312 74.1433 122.26C73.4143 124.229 72.1567 129.769 71.4277 131.738C70.5346 131.665 69.6233 131.647 68.7302 131.574C68.8214 129.587 69.6051 123.864 69.678 121.877C69.8238 118.56 71.4823 115.079 72.7946 112.017C72.1385 108.846 72.1203 105.401 72.1385 102.157C72.1567 99.2953 72.1749 97.254 72.1932 94.4108Z"
            fill="#0E538C" />
        <path
            d="M84.7874 82.1625C85.1155 82.2172 85.4982 82.199 85.7534 81.9803C85.881 81.8709 85.9721 81.7069 86.0632 81.5793C86.3731 81.2148 86.9016 81.0325 87.3573 81.1419C88.305 81.3788 88.7607 82.5817 89.7084 82.7822C89.8542 82.8187 90 82.8187 90.1458 82.8733C90.2917 82.928 90.4192 83.0191 90.4375 83.165C90.4739 83.3472 90.3463 83.493 90.2188 83.6388C90.0547 83.8211 89.8725 84.0033 89.7084 84.1856C89.6355 84.2585 89.5444 84.3496 89.4533 84.3861C89.2528 84.4772 88.9976 84.3861 88.8336 84.5137C88.6878 84.623 88.6513 84.8417 88.4873 84.9511C88.2503 85.0969 87.9223 84.8782 87.6489 84.9876C87.5031 85.0422 87.4119 85.1698 87.3026 85.2427C87.1021 85.3703 86.8287 85.3521 86.5918 85.2792C86.3548 85.188 86.1544 85.0422 85.9539 84.9329C85.6805 84.7871 85.3889 84.6777 85.0972 84.5866C84.2953 84.3861 83.4387 84.4408 82.6003 84.5137C82.5638 83.8575 82.5456 83.2014 82.5092 82.5453C82.5092 82.4359 82.5092 82.3083 82.5638 82.199C82.6732 81.9985 82.9648 81.9985 83.2017 82.0532C83.4934 82.1261 83.6392 82.1078 83.9126 82.0532C84.1859 81.9985 84.514 82.1261 84.7874 82.1625Z"
            fill="#DBA17B" />
        <path
            d="M86.938 84.6781C86.8469 84.5323 86.8833 84.3318 87.0291 84.2407L92.2782 80.7777C92.424 80.6866 92.6245 80.723 92.7156 80.8688C92.8068 81.0146 92.7703 81.2151 92.6245 81.3063L87.3754 84.7692C87.2296 84.8603 87.0291 84.8239 86.938 84.6781Z"
            fill="#114A70" />
        <path
            d="M82.7461 131.464C82.819 131.3 83.0195 131.245 83.1471 131.355C83.7121 131.829 85.2249 132.904 88.2322 133.597C88.2322 133.597 88.9612 133.742 89.4898 134.599L78.3354 134.599L78.3354 132.631C78.3354 132.412 78.5906 132.302 78.7547 132.43L79.1921 132.795C79.3926 132.977 79.6659 133.068 79.9211 133.068L81.525 133.086C81.8713 133.086 82.1811 132.886 82.3087 132.558L82.7461 131.464Z"
            fill="#CCE9FF" />
        <path d="M89.5024 135.752L78.3481 135.752L78.3481 134.604L89.5024 134.604L89.5024 135.752Z" fill="#0E538C" />
        <path
            d="M71.8469 132.083C71.9563 131.956 72.175 131.974 72.2661 132.12C72.6306 132.758 73.706 134.27 76.2758 135.965C76.2758 135.965 76.9137 136.366 77.1325 137.332L66.6343 133.56L67.3086 131.701C67.3815 131.5 67.6549 131.464 67.7643 131.664L68.0377 132.156C68.1653 132.393 68.384 132.575 68.6391 132.667L70.1337 133.213C70.4617 133.341 70.8263 133.232 71.045 132.976L71.8469 132.083Z"
            fill="#CCE9FF" />
        <path d="M76.723 138.42L66.2279 134.642L66.6168 133.562L77.1119 137.34L76.723 138.42Z" fill="#0E538C" />
        <path
            d="M82.9101 81.2337C83.7121 83.9129 84.3135 88.1231 84.6963 90.8934C84.7874 91.5496 84.7327 94.0283 84.2771 94.5022C84.0037 94.7938 76.9502 95.5775 74.0158 96.5435C73.6149 96.6711 71.7011 97.4183 71.3184 97.2543C70.7716 97.0174 70.48 94.6115 70.6076 94.0465C72.3026 86.7379 72.3026 92.1146 69.8239 77.7343C69.3318 74.8546 68.384 72.1936 69.3682 69.4414C69.6963 68.5301 72.175 65.8691 72.175 65.8691C72.175 65.8691 73.0134 66.7622 73.87 67.2725C74.5808 67.6917 75.5104 68.439 76.1118 68.5848C78.864 69.2227 81.9442 78.0077 82.9101 81.2337Z"
            fill="#497EAD" />
        <path
            d="M79.5019 100.735C79.7388 101.246 79.8481 101.811 79.9028 102.358C79.9757 103.324 79.8664 104.29 79.593 105.201C79.192 105.11 78.8639 104.745 78.8093 104.326C78.9915 104.618 78.8275 105.055 78.4994 105.146C78.1714 105.237 77.8068 104.927 77.8251 104.581C77.7339 104.873 77.4059 105.091 77.1143 105.037C76.8044 104.982 76.5675 104.691 76.5857 104.381C76.7133 104.472 76.6768 104.691 76.5675 104.782C76.4399 104.873 76.2576 104.855 76.13 104.782C76.0025 104.709 75.9113 104.563 75.8567 104.417C75.7655 104.162 75.7291 103.889 75.7108 103.615C75.6197 102.449 75.5468 101.264 75.4557 100.098C75.4375 99.9335 75.4375 99.7695 75.5104 99.6237C75.6562 99.3503 76.0389 99.3138 76.367 99.3321L77.6246 99.3867C77.898 99.405 78.1896 99.3867 78.4447 99.4779C78.9004 99.6966 79.2831 100.298 79.5019 100.735Z"
            fill="#DBA17B" />
        <path
            d="M74.9453 73.3599C74.7995 75.8204 74.6537 78.2992 74.4897 80.7597C74.3985 82.1266 74.3256 83.5118 74.5261 84.8605C74.6901 85.9905 75.0364 87.0841 75.3827 88.1594C76.6403 92.0598 77.8979 95.9602 79.1737 99.8605C77.825 99.7694 76.4581 99.6783 75.1093 99.5871C74.034 95.4134 71.9562 87.9589 71.774 87.2846C70.2794 82.6005 69.7509 77.6248 70.2248 72.7402L74.9453 73.3599Z"
            fill="#497EAD" />
        <path
            d="M68.712 49.3925C68.712 44.5626 63.4082 40.644 56.8651 40.644C50.322 40.644 45.0182 44.5626 45.0182 49.3925C45.0182 54.2224 50.322 58.141 56.8651 58.141C58.1045 58.141 59.3074 57.9952 60.4192 57.74L64.7023 61.2394L64.7023 55.9539C67.1628 54.35 68.712 51.9988 68.712 49.3925Z"
            fill="#0073E6" />
        <path
            d="M61.8773 40.9172C61.8773 36.9986 57.5759 33.8091 52.2539 33.8091C46.932 33.8091 42.6306 36.9804 42.6306 40.9172C42.6306 44.8358 46.932 48.0254 52.2539 48.0254C53.2564 48.0254 54.2406 47.916 55.1519 47.6973L58.6148 50.5406L58.6148 46.2574C60.6197 44.9269 61.8773 43.0314 61.8773 40.9172Z"
            fill="white" />
        <path
            d="M57.2297 38.3656L46.8409 38.3656C46.6951 38.3656 46.5675 38.238 46.5675 38.0922C46.5675 37.9464 46.6951 37.8188 46.8409 37.8188L57.2297 37.8188C57.3755 37.8188 57.5031 37.9464 57.5031 38.0922C57.5031 38.238 57.3755 38.3656 57.2297 38.3656ZM57.2297 40.334L46.8409 40.334C46.6951 40.334 46.5675 40.2065 46.5675 40.0606C46.5675 39.9148 46.6951 39.7873 46.8409 39.7873L57.2297 39.7873C57.3755 39.7873 57.5031 39.9148 57.5031 40.0606C57.5031 40.2065 57.3755 40.334 57.2297 40.334ZM57.2297 42.3207L46.8409 42.3207C46.6951 42.3207 46.5675 42.1931 46.5675 42.0473C46.5675 41.9015 46.6951 41.7739 46.8409 41.7739L57.2297 41.7739C57.3755 41.7739 57.5031 41.9015 57.5031 42.0473C57.5031 42.1931 57.3755 42.3207 57.2297 42.3207ZM57.2297 44.2891L46.8409 44.2891C46.6951 44.2891 46.5675 44.1615 46.5675 44.0157C46.5675 43.8699 46.6951 43.7423 46.8409 43.7423L57.2297 43.7423C57.3755 43.7423 57.5031 43.8699 57.5031 44.0157C57.5031 44.1615 57.3755 44.2891 57.2297 44.2891Z"
            fill="#0073E6" />
    </g>
</svg>