<svg width="103" height="84" viewBox="0 0 103 84" fill="none" xmlns="http://www.w3.org/2000/svg">
<path d="M33.5547 17.7324L72.4565 36.9972C76.5823 39.0395 76.5823 43.9404 72.4565 45.9826L33.5547 65.2475C29.2814 67.3633 23.8252 64.8433 23.8252 60.7561V22.2237C23.8252 18.1366 29.2814 15.6166 33.5547 17.7324Z" fill="#499ED7"/>
<path d="M33.5547 65.2445L72.4565 45.9796C76.5823 43.9374 76.5823 39.0365 72.4565 36.9943L64.5799 33.0935L64.1952 33.083L30.9099 65.9349C31.8435 65.87 32.7474 65.634 33.5547 65.2445Z" fill="#F04C4D"/>
<path d="M23.8252 53.5898V60.7534C23.8252 64.8431 29.2814 67.3605 33.5547 65.2448L72.4565 45.9799C74.9089 44.7671 75.8674 42.5464 75.4025 40.5146L23.8252 53.5898Z" fill="#2B8EC6"/>
<path d="M27.281 17.5879C26.2376 18.0231 25.3621 18.6869 24.752 19.5053C24.1419 20.3238 23.821 21.2648 23.8252 22.2236V28.9594L27.281 17.5879Z" fill="#499ED7"/>
<path d="M72.4565 36.9969L33.5547 17.7321C32.7454 17.3417 31.8394 17.1049 30.9036 17.0391L64.1921 50.0747L72.4597 45.9823C76.5823 43.9374 76.5823 39.0392 72.4565 36.9969Z" fill="#92CA62"/>
<path d="M50.1925 46.9058L30.9099 65.9371C31.8043 65.861 32.7019 65.6667 33.5547 65.2467L72.4565 45.9819C74.9089 44.7691 75.8674 42.5484 75.4025 40.5166L50.1925 46.9058Z" fill="#E13340"/>
<path d="M72.4563 36.9972L64.5798 33.0964L64.1951 33.0859L55.6101 41.5594L64.1919 50.0749L72.4595 45.9826C76.5821 43.9377 76.5821 39.0394 72.4563 36.9972Z" fill="#FCD770"/>
<path d="M58.7998 44.7225L64.1919 50.0723L72.4595 45.9799C74.9119 44.7672 75.8704 42.5464 75.4056 40.5146L58.7998 44.7225Z" fill="#FFCC5C"/>
</svg>
